<?xml version="1.0" standalone="no"?>
<!DOCTYPE svg PUBLIC "-//W3C//DTD SVG 20010904//EN"
 "http://www.w3.org/TR/2001/REC-SVG-20010904/DTD/svg10.dtd">
<svg version="1.0" xmlns="http://www.w3.org/2000/svg"
 width="1280.000000pt" height="1069.000000pt" viewBox="0 0 1280.000000 1069.000000"
 preserveAspectRatio="xMidYMid meet">
<metadata>
Created by potrace 1.15, written by Peter Selinger 2001-2017
</metadata>
<g transform="translate(0.000000,1069.000000) scale(0.100000,-0.100000)"
fill="#000000" stroke="none">
<path d="M2192 10612 c-70 -104 -98 -172 -112 -267 -32 -213 39 -483 183 -698
38 -57 42 -67 26 -67 -24 0 -24 -22 0 -125 69 -285 232 -603 375 -732 43 -38
151 -103 172 -103 4 0 -13 21 -37 48 -50 53 -142 173 -213 277 -81 118 -197
378 -246 550 l-20 70 88 -91 c48 -50 80 -81 71 -70 -42 53 -128 199 -162 274
-44 97 -100 284 -117 394 -19 115 -9 297 21 376 12 34 27 62 31 62 11 0 220
-158 320 -241 194 -161 412 -400 569 -624 147 -210 282 -376 295 -362 7 6 -37
110 -98 232 -178 356 -527 737 -911 996 -109 73 -122 85 -122 111 0 21 -8 34
-30 48 l-31 19 -52 -77z"/>
<path d="M2273 9908 c-21 -10 -22 -12 -6 -42 71 -139 295 -399 453 -527 l55
-44 -43 50 c-129 151 -327 402 -369 467 -26 41 -52 82 -58 91 -8 12 -15 13
-32 5z"/>
<path d="M6510 9827 c-235 -90 -553 -309 -724 -498 -64 -70 -143 -191 -158
-241 -8 -27 -16 -37 -26 -33 -20 7 -209 -185 -403 -410 -221 -256 -301 -338
-349 -360 -36 -16 -41 -22 -36 -44 4 -22 -7 -38 -62 -95 l-67 -69 65 56 c36
31 81 62 100 68 19 6 68 29 108 51 64 35 88 40 64 13 -5 -6 -23 -37 -41 -70
-18 -33 -24 -49 -15 -36 129 173 134 178 251 263 230 167 369 297 460 429 36
52 143 228 143 234 0 3 -32 -29 -71 -70 -40 -42 -74 -73 -76 -71 -3 3 3 27 12
55 47 142 215 322 465 498 114 80 201 129 350 197 81 37 149 76 193 111 l68
55 -83 0 c-69 -1 -97 -6 -168 -33z m-907 -849 c-4 -22 -11 -28 -31 -28 l-26 0
29 30 c16 16 30 29 31 27 1 -1 0 -14 -3 -29z m25 -72 c27 9 -221 -219 -323
-296 -32 -25 132 185 180 229 25 23 59 44 75 48 19 3 30 12 30 23 0 25 15 35
18 12 2 -14 9 -19 20 -16z"/>
<path d="M6632 9686 c7 -57 66 -183 148 -312 35 -54 91 -155 124 -224 l61
-125 0 -345 c-1 -316 -3 -356 -24 -475 -39 -220 -119 -501 -215 -760 -6 -16
-4 -15 13 5 11 14 21 20 21 15 0 -30 24 -201 50 -365 55 -343 73 -636 51 -825
-9 -71 -20 -101 -104 -275 -185 -385 -261 -553 -281 -619 -22 -75 -21 -148 4
-188 38 -62 84 -57 300 37 155 67 228 90 281 90 39 0 58 15 41 32 -14 14 -149
-7 -234 -38 -277 -99 -306 -108 -322 -95 -22 18 -20 85 4 155 10 31 55 133
100 226 44 94 80 175 80 181 0 6 55 66 123 133 159 157 354 401 344 430 -10
30 -39 7 -109 -87 -80 -108 -300 -369 -305 -363 -2 1 4 20 12 40 18 43 96 319
101 356 2 14 15 68 30 120 24 85 27 113 27 265 1 171 -8 250 -52 467 -11 51
-27 136 -36 188 -29 172 -36 200 -51 200 -19 0 -18 4 10 48 77 122 155 318
194 487 27 117 52 343 53 492 l1 118 14 -65 c8 -36 18 -117 22 -180 l7 -115
20 80 c15 61 19 115 19 225 0 168 -23 282 -94 462 -53 134 -90 200 -218 393
-58 88 -113 180 -123 205 -15 41 -20 45 -54 48 l-38 3 5 -45z"/>
<path d="M6353 9463 c-29 -15 -83 -54 -120 -85 -84 -71 -315 -305 -253 -257
25 20 88 69 140 111 174 138 285 204 327 194 13 -4 32 -1 43 7 20 14 20 14 1
31 -34 31 -81 30 -138 -1z"/>
<path d="M6585 9450 c-3 -5 11 -33 32 -62 21 -29 59 -93 85 -143 26 -49 48
-87 48 -83 0 16 -80 192 -111 244 -33 54 -43 62 -54 44z"/>
<path d="M6498 9392 c-16 -9 -28 -20 -28 -25 0 -4 18 -43 40 -86 21 -43 52
-119 69 -169 48 -148 111 -444 111 -528 0 -43 -19 -74 -189 -309 -108 -147
-155 -253 -181 -403 -13 -77 -17 -305 -6 -419 7 -70 11 -83 26 -83 16 0 19 15
24 148 9 186 30 343 61 441 14 42 70 160 125 264 55 103 100 189 100 192 0 2
11 28 24 57 29 62 56 128 56 136 0 3 -7 -3 -14 -14 -13 -17 -14 -3 -9 116 9
223 -28 414 -114 586 -20 39 -43 81 -52 92 -15 20 -17 20 -43 4z"/>
<path d="M3623 9349 c4 -13 7 -30 7 -36 0 -8 13 -13 30 -13 17 0 135 -27 263
-60 127 -33 374 -91 547 -130 319 -71 571 -134 598 -149 10 -5 -5 -15 -47 -31
-34 -12 -60 -24 -58 -27 2 -2 30 3 63 12 75 19 134 21 172 6 26 -11 31 -20 37
-62 6 -42 10 -49 30 -49 27 0 36 38 25 101 -10 51 -34 77 -79 85 -20 3 -61 18
-91 34 -98 50 -276 98 -645 174 -93 20 -291 63 -440 96 -148 34 -303 64 -344
67 l-74 6 6 -24z"/>
<path d="M2590 9314 c-22 -10 -36 -11 -38 -4 -2 5 -12 10 -23 10 -40 0 -16
-72 68 -198 38 -58 63 -111 85 -180 34 -111 90 -233 114 -253 16 -13 16 -12 6
7 -10 18 -42 186 -42 219 0 5 28 -17 62 -50 l62 -60 -45 55 c-65 78 -96 130
-104 170 -22 114 -86 300 -102 300 -4 -1 -24 -8 -43 -16z"/>
<path d="M2163 9193 c-24 -9 -13 -33 48 -98 71 -75 133 -123 239 -183 l75 -42
-169 165 c-92 91 -171 165 -175 164 -3 0 -12 -3 -18 -6z"/>
<path d="M2876 8998 c-8 -50 18 -222 45 -294 21 -55 90 -144 112 -144 5 0 3 8
-6 18 -16 18 -38 91 -52 172 l-8 45 85 -80 c78 -74 167 -133 228 -150 24 -6
23 -6 -5 16 -32 24 -259 272 -299 328 -14 19 -28 53 -32 76 -5 37 -10 44 -34
47 -26 4 -29 1 -34 -34z"/>
<path d="M3165 9000 c-18 -20 -18 -21 2 -43 10 -12 25 -47 32 -77 26 -106 96
-221 154 -251 22 -12 22 -12 -1 13 -18 20 -87 196 -79 204 1 1 22 -13 47 -32
50 -38 143 -94 156 -94 5 0 -44 53 -107 118 -71 71 -119 128 -123 145 -4 15
-13 27 -20 27 -8 0 -21 2 -28 5 -8 3 -23 -4 -33 -15z"/>
<path d="M2575 8651 c-5 -9 103 -97 110 -89 2 2 -20 25 -50 51 -30 26 -56 43
-60 38z"/>
<path d="M3446 8437 c-228 -243 -345 -448 -354 -617 -5 -103 14 -169 45 -149
15 9 18 25 18 102 0 84 3 99 35 172 20 44 81 150 136 235 56 85 123 191 149
235 26 44 55 90 63 103 28 43 2 21 -92 -81z"/>
<path d="M4475 8445 c-191 -138 -354 -314 -431 -468 -36 -70 -36 -80 2 -91 18
-5 30 8 80 86 74 115 195 266 337 420 59 65 107 118 105 118 -2 0 -43 -30 -93
-65z"/>
<path d="M4107 8439 c-10 -6 -57 -24 -104 -40 -242 -81 -402 -229 -481 -442
-25 -66 -28 -97 -9 -97 7 0 26 33 42 73 48 124 115 215 214 291 72 55 151 101
151 88 0 -6 -5 -14 -10 -17 -18 -11 -80 -144 -110 -235 -35 -108 -56 -215 -65
-337 l-8 -93 35 0 35 0 7 63 c10 89 60 302 91 383 27 73 77 166 133 251 32 49
39 54 111 77 42 14 85 27 96 30 11 3 -9 2 -44 -1 -45 -4 -62 -2 -57 6 9 14 -3
14 -27 0z"/>
<path d="M2308 8145 c-136 -140 -196 -211 -252 -297 -98 -149 -210 -357 -236
-438 -58 -177 -86 -491 -57 -630 43 -209 157 -382 356 -542 108 -88 111 -89
61 -30 -200 237 -306 439 -332 637 -20 149 19 471 74 610 l20 50 -22 17 -22
18 36 44 c75 92 296 336 422 466 71 74 145 157 164 184 l33 49 -29 24 c-16 12
-31 23 -34 22 -3 0 -85 -83 -182 -184z"/>
<path d="M4360 7984 c-90 -67 -175 -148 -240 -229 -144 -181 -318 -556 -345
-747 -7 -45 -6 -48 14 -48 12 0 23 6 25 13 104 377 290 706 570 1004 32 35 57
63 55 63 -2 0 -38 -25 -79 -56z"/>
<path d="M3045 7944 c-25 -31 -58 -77 -72 -102 -31 -52 -95 -231 -87 -244 9
-14 64 -9 64 6 0 16 115 327 136 369 22 41 10 33 -41 -29z"/>
<path d="M6050 7878 c-99 -211 -191 -538 -151 -538 5 0 17 35 26 78 14 61 149
480 180 555 4 9 5 17 3 17 -3 0 -29 -51 -58 -112z"/>
<path d="M2528 7872 c-54 -89 -92 -210 -103 -325 -8 -94 2 -197 19 -197 9 0
15 35 19 123 8 147 41 285 112 460 14 34 -1 15 -47 -61z"/>
<path d="M2665 7720 c-103 -146 -161 -305 -195 -530 -11 -74 -23 -147 -26
-162 -3 -16 -1 -28 4 -28 6 0 17 -3 25 -6 18 -7 26 17 62 186 27 127 141 500
176 578 10 23 17 42 15 42 -3 0 -30 -36 -61 -80z"/>
<path d="M7060 7771 c-25 -3 -44 -9 -42 -13 1 -5 2 -19 2 -33 0 -25 1 -25 84
-25 100 0 315 -17 401 -31 101 -17 193 -50 258 -93 60 -41 125 -115 280 -320
33 -43 60 -76 62 -74 11 10 -32 146 -70 223 -90 182 -220 293 -400 340 -117
30 -436 45 -575 26z"/>
<path d="M3529 7717 l-27 -12 34 -170 c19 -93 52 -270 75 -393 45 -244 113
-512 120 -472 9 52 -10 312 -36 475 -29 187 -88 482 -107 541 -15 43 -23 48
-59 31z"/>
<path d="M9195 7620 c-376 -15 -1006 -54 -1088 -66 -36 -6 -38 -8 -35 -37 l3
-32 70 3 c1082 41 1558 46 1753 18 160 -22 218 -44 291 -110 l34 -31 -19 34
c-59 105 -178 180 -329 206 -111 20 -410 26 -680 15z"/>
<path d="M10399 7398 c-14 -26 -6 -33 103 -89 491 -249 685 -490 762 -949 8
-47 26 -188 41 -315 15 -126 29 -241 33 -255 3 -14 12 47 20 135 25 276 -3
537 -81 743 -85 226 -260 429 -487 562 -57 34 -365 190 -374 190 -3 0 -11 -10
-17 -22z"/>
<path d="M5940 7169 c176 -98 408 -196 437 -185 30 12 6 39 -62 68 -160 68
-264 108 -337 127 -101 27 -103 26 -38 -10z"/>
<path d="M2195 7083 c-7 -21 -9 -22 -41 -8 l-34 14 25 -37 c14 -20 25 -43 25
-51 0 -20 -17 -2 -22 24 -5 27 -52 -74 -68 -148 -25 -109 26 -219 131 -287 70
-45 89 -49 96 -20 3 11 8 20 12 20 4 0 27 -20 51 -45 29 -30 47 -42 54 -35 19
19 26 9 26 -40 l0 -50 50 0 50 0 0 140 c0 273 -43 354 -242 449 -79 38 -98 51
-101 71 -4 25 -4 25 -12 3z m128 -208 c42 -34 97 -107 97 -128 0 -4 -19 14
-42 39 -23 25 -61 56 -84 70 -31 18 -43 32 -46 54 -5 33 -10 35 75 -35z m-102
-183 c13 -16 12 -16 -5 -2 -22 18 -56 86 -56 115 0 11 11 -6 24 -38 13 -32 30
-65 37 -75z m137 11 c18 -25 20 -25 44 -9 25 16 26 16 32 -6 3 -13 6 -36 6
-53 l0 -29 -53 52 c-29 29 -61 67 -71 85 l-17 32 20 -23 c11 -13 29 -35 39
-49z"/>
<path d="M6463 6978 l-22 -21 24 -48 c36 -70 91 -259 110 -379 24 -150 22
-395 -4 -519 -31 -144 -117 -308 -208 -397 l-38 -37 40 29 c184 130 261 228
307 389 32 114 32 369 0 533 -37 184 -122 411 -171 456 -15 14 -19 14 -38 -6z"/>
<path d="M7965 6950 c-22 -11 -88 -42 -147 -69 -178 -82 -415 -236 -453 -295
-24 -37 -6 -66 42 -66 33 0 35 2 30 26 -4 21 5 32 52 71 61 50 318 222 452
302 86 52 96 65 24 31z"/>
<path d="M10145 6813 c-231 -86 -631 -201 -967 -278 -103 -24 -118 -29 -118
-47 0 -19 4 -20 62 -14 146 15 595 130 773 198 93 36 385 174 385 182 0 9 -5
7 -135 -41z"/>
<path d="M3581 6570 c-40 -71 -84 -161 -97 -199 -24 -70 -46 -189 -35 -195 12
-7 121 -4 126 3 2 4 9 43 14 87 34 262 43 325 56 374 7 30 12 56 11 57 -1 1
-34 -56 -75 -127z"/>
<path d="M3960 6655 c-36 -7 -90 -20 -120 -28 -30 -9 -74 -21 -97 -27 l-43
-11 0 -49 c0 -28 2 -50 4 -50 2 0 75 14 161 30 86 17 169 29 183 29 17 -1 21
-3 10 -6 -10 -2 -18 -9 -18 -14 0 -5 -25 -9 -56 -9 -47 0 -55 -3 -52 -17 3
-13 14 -18 43 -19 58 -2 60 -3 48 -15 -8 -8 -32 -7 -87 2 -82 14 -95 9 -96
-33 0 -16 10 -18 79 -18 l80 0 -10 -30 c-13 -36 -14 -36 -80 -9 -48 18 -54 19
-68 4 -19 -19 -11 -26 62 -52 51 -19 61 -37 25 -47 -43 -11 -51 -21 -39 -45
10 -18 15 -19 32 -10 12 6 21 9 22 7 1 -2 8 -13 15 -25 11 -20 10 -23 -6 -23
-29 0 -123 62 -154 101 -16 20 -35 54 -43 75 -10 30 -19 40 -39 42 -24 3 -26
0 -26 -31 0 -123 119 -247 271 -282 205 -46 478 81 567 266 19 39 32 54 42 51
13 -4 13 -3 2 11 -12 14 -9 75 4 98 9 16 420 -162 573 -247 24 -13 46 -23 48
-20 6 6 -132 122 -195 164 -90 60 -239 122 -429 178 -7 2 -13 19 -13 39 l0 35
-267 -1 c-175 -1 -291 -6 -333 -14z m350 -125 c42 -11 104 -32 139 -47 l63
-28 -47 -60 c-58 -75 -111 -119 -198 -160 l-67 -33 -61 14 c-58 14 -99 30 -99
39 0 3 11 0 25 -5 14 -5 54 -12 90 -16 60 -6 68 -5 90 16 13 13 29 38 35 56 7
19 15 34 20 34 4 0 33 19 64 42 94 70 70 118 -61 118 -41 0 -75 5 -79 11 -3 6
-25 19 -48 30 l-41 19 50 -6 c28 -3 84 -14 125 -24z m238 -13 c-10 -19 -11
-19 -34 6 -32 34 -30 37 11 25 30 -10 33 -13 23 -31z m-421 -115 c-10 -10 -17
-28 -17 -40 0 -25 -12 -28 -29 -8 -17 20 3 64 31 68 31 5 34 1 15 -20z"/>
<path d="M1783 6540 c-13 -5 -23 -17 -23 -27 0 -36 149 -277 324 -523 59 -82
67 -90 61 -60 -21 103 -212 480 -301 593 -24 29 -28 30 -61 17z"/>
<path d="M7201 6536 c-11 -13 -3 -27 43 -87 135 -171 201 -348 213 -566 l6
-113 -26 0 c-24 0 -26 -4 -32 -57 -31 -281 -32 -282 -120 -603 -55 -200 -79
-304 -91 -400 -7 -51 -48 -158 -142 -370 -37 -83 -39 -85 -93 -106 -29 -12
-66 -33 -80 -47 -15 -14 -40 -29 -55 -32 -67 -15 -163 -58 -187 -83 -14 -15
-29 -39 -32 -54 -6 -23 -2 -33 24 -57 31 -29 68 -41 128 -41 23 0 33 -4 30
-12 -3 -10 -54 -12 -224 -9 -159 3 -222 0 -227 -8 -4 -6 -5 -24 -1 -40 6 -28
8 -29 83 -34 85 -6 216 -43 206 -58 -3 -5 -37 -32 -76 -59 l-71 -50 -126 66
c-69 37 -142 77 -163 90 -21 13 -41 24 -45 24 -9 0 -36 -40 -31 -45 18 -15
109 -66 199 -111 61 -31 109 -57 107 -59 -1 -2 -113 -67 -248 -145 -281 -164
-352 -211 -341 -229 6 -8 36 5 108 48 55 33 187 105 293 161 107 55 206 110
222 121 l29 21 67 -27 c118 -48 205 -75 236 -74 l31 1 -32 9 c-18 5 -80 35
-138 65 l-106 56 83 59 c46 32 99 72 118 89 l35 29 180 -15 c99 -8 186 -15
192 -17 28 -5 -264 -442 -300 -450 -155 -33 -328 -67 -394 -77 -67 -10 -83
-16 -83 -30 0 -9 2 -19 5 -22 7 -6 236 33 358 61 48 12 90 21 93 21 3 0 -13
-23 -36 -52 -37 -46 -49 -54 -115 -75 -41 -13 -75 -28 -75 -33 0 -13 8 -13 63
4 47 14 60 9 32 -14 -8 -7 -15 -16 -15 -21 0 -5 15 7 33 25 26 29 53 41 152
71 137 41 437 146 432 151 -1 2 -36 -7 -77 -20 -167 -53 -440 -133 -440 -129
0 3 20 28 45 55 44 49 51 52 203 103 162 54 295 105 289 111 -1 2 -45 -10 -97
-27 -108 -35 -269 -79 -288 -79 -7 0 11 28 40 63 116 136 224 299 304 460 63
124 68 144 41 151 -33 9 -47 7 -47 -5 0 -6 -16 -44 -35 -86 -29 -62 -38 -74
-52 -68 -14 6 -267 73 -281 75 -2 0 10 17 26 38 16 20 41 56 55 79 26 40 28
41 94 48 98 9 118 17 118 46 0 19 -8 27 -35 36 -30 10 -32 12 -15 18 93 34
200 85 246 119 31 23 65 46 75 53 12 8 2 7 -25 -2 -24 -8 -60 -15 -80 -15 -35
0 -82 -9 -129 -24 -23 -8 -24 -7 -17 51 26 229 67 426 146 703 57 202 76 296
94 456 8 77 23 177 33 223 l18 84 94 32 c52 18 134 42 183 55 48 13 85 25 83
27 -6 6 -222 -50 -300 -77 -33 -11 -60 -20 -61 -20 -1 0 -5 48 -8 108 -4 67
-14 133 -27 177 -43 135 -127 280 -212 363 -39 37 -46 41 -57 28z m-12 -2187
c1 -33 -2 -37 -35 -47 -32 -9 -35 -9 -29 6 49 130 50 132 56 104 4 -15 7 -43
8 -63z m-313 -331 c-42 -59 -48 -63 -81 -61 -46 3 -132 40 -119 52 18 18 177
68 222 70 22 1 20 -3 -22 -61z m149 -143 l50 -15 -60 5 c-119 10 -155 17 -149
27 8 12 88 3 159 -17z m-377 -65 c33 0 35 -2 21 -15 -14 -14 -19 -14 -52 0
-35 15 -54 34 -21 21 9 -3 32 -6 52 -6z"/>
<path d="M8435 6503 c-229 -29 -663 -149 -853 -235 -67 -31 -72 -35 -59 -52
13 -18 18 -17 118 21 192 75 339 119 694 209 214 54 241 63 190 62 -33 0 -73
-3 -90 -5z"/>
<path d="M9735 6351 c-4 -12 -5 -25 -2 -27 3 -3 94 -9 203 -14 537 -25 655
-34 749 -55 69 -15 -7 16 -111 45 -151 42 -289 58 -580 66 l-252 7 -7 -22z"/>
<path d="M2666 6253 c-42 -85 -129 -225 -151 -243 -16 -14 -20 -30 -7 -30 25
0 216 330 200 345 -2 3 -21 -30 -42 -72z"/>
<path d="M4700 6248 c-139 -117 -236 -169 -375 -199 -33 -7 -64 -18 -70 -25
-5 -6 -46 -15 -90 -18 -72 -7 -94 -16 -95 -38 0 -11 133 -9 215 2 93 14 299
66 354 91 24 10 45 18 47 16 2 -1 -21 -22 -52 -46 -30 -25 -52 -46 -50 -48 11
-11 98 47 161 107 39 37 91 81 118 99 26 18 47 34 47 37 0 2 -18 -8 -40 -22
-41 -27 -63 -27 -40 1 7 8 9 22 6 32 -5 13 -14 6 -41 -35 -35 -51 -36 -51
-151 -87 -64 -20 -117 -35 -119 -33 -2 2 21 16 50 32 67 35 180 130 207 174
11 17 16 32 11 32 -5 0 -47 -32 -93 -72z"/>
<path d="M8770 6158 c-308 -10 -619 -44 -757 -84 -55 -15 -59 -19 -44 -43 8
-12 20 -12 88 2 157 33 387 57 823 87 168 12 323 25 345 29 60 12 -208 17
-455 9z"/>
<path d="M9298 6143 c7 -3 16 -2 19 1 4 3 -2 6 -13 5 -11 0 -14 -3 -6 -6z"/>
<path d="M11438 6054 c-15 -16 -14 -21 12 -68 16 -28 52 -104 79 -169 146
-342 303 -574 586 -865 157 -163 245 -234 434 -355 145 -92 197 -123 151 -90
-83 61 -175 146 -326 301 -405 419 -555 617 -730 966 -88 174 -163 296 -182
296 -4 0 -15 -7 -24 -16z"/>
<path d="M4915 6004 c-83 -63 -239 -158 -310 -189 -32 -15 -92 -34 -132 -44
-80 -19 -98 -38 -30 -33 91 7 266 84 372 166 64 49 173 145 165 145 -3 0 -32
-20 -65 -45z"/>
<path d="M3876 5993 c-13 -14 -5 -30 27 -48 81 -47 225 -188 285 -279 25 -38
78 -137 118 -220 69 -140 74 -147 68 -101 -27 222 -171 459 -354 580 -75 50
-134 78 -144 68z"/>
<path d="M7968 5983 c7 -3 16 -2 19 1 4 3 -2 6 -13 5 -11 0 -14 -3 -6 -6z"/>
<path d="M10278 5985 c-5 -5 -8 -12 -8 -17 0 -4 154 -8 343 -7 229 1 330 4
307 10 -44 12 -632 24 -642 14z"/>
<path d="M7928 5973 c7 -3 16 -2 19 1 4 3 -2 6 -13 5 -11 0 -14 -3 -6 -6z"/>
<path d="M7888 5963 c7 -3 16 -2 19 1 4 3 -2 6 -13 5 -11 0 -14 -3 -6 -6z"/>
<path d="M1876 5839 c-3 -17 -6 -68 -7 -113 -1 -44 -4 -92 -8 -104 l-6 -24
-25 20 c-111 87 -320 137 -570 136 -231 -1 -400 -37 -634 -135 -125 -53 -276
-126 -276 -134 0 -2 43 16 96 40 208 97 512 165 736 165 253 0 527 -69 641
-162 l29 -23 -21 -85 c-12 -47 -28 -103 -37 -125 l-15 -41 -97 4 c-294 12
-675 -132 -1012 -384 -102 -75 -316 -260 -360 -310 -14 -15 11 3 54 40 248
214 563 394 854 489 169 56 267 75 426 83 123 7 124 7 129 33 3 14 28 51 56
80 96 106 119 184 123 426 l3 150 -36 3 c-34 3 -37 1 -43 -29z"/>
<path d="M2430 5790 c-40 -44 -74 -79 -77 -77 -2 2 1 16 6 31 16 40 6 31 -29
-25 -31 -52 -35 -99 -8 -99 23 0 113 107 151 178 21 40 36 72 34 72 -3 0 -37
-36 -77 -80z"/>
<path d="M9845 5770 c-83 -14 -129 -30 -117 -42 7 -7 28 -6 64 2 99 22 282 24
423 5 275 -36 650 -154 855 -268 96 -53 40 -11 -70 53 -177 102 -429 190 -677
235 -104 19 -392 28 -478 15z"/>
<path d="M6984 5683 c-15 -21 -116 -125 -223 -230 -106 -106 -191 -193 -187
-193 18 0 244 179 324 257 100 98 160 182 139 195 -19 12 -23 10 -53 -29z"/>
<path d="M6227 5655 c-90 -102 -338 -246 -577 -335 -63 -23 -140 -53 -170 -66
-105 -44 -123 -43 -247 19 -292 147 -505 202 -708 181 -73 -7 -90 -12 -93 -26
-3 -16 6 -18 75 -18 194 -1 360 -42 603 -150 163 -72 528 -210 557 -210 3 0
-57 32 -134 71 -76 39 -141 74 -145 77 -4 4 33 5 83 4 111 -5 211 16 338 70
247 104 444 251 505 376 18 37 18 44 6 52 -28 18 -45 10 -93 -45z"/>
<path d="M8625 5584 c-187 -12 -357 -23 -377 -23 -27 -1 -38 -5 -38 -16 0 -11
7 -14 23 -11 12 3 92 7 177 11 85 3 259 12 385 20 289 17 665 35 815 38 63 2
-56 3 -265 4 -298 0 -454 -5 -720 -23z"/>
<path d="M9808 5593 c7 -3 16 -2 19 1 4 3 -2 6 -13 5 -11 0 -14 -3 -6 -6z"/>
<path d="M2235 5579 c-4 -6 -8 -46 -8 -88 0 -84 14 -127 58 -179 27 -32 145
-119 145 -107 0 4 -18 38 -40 76 -56 94 -70 140 -70 220 0 37 -3 70 -7 72 -22
13 -72 17 -78 6z"/>
<path d="M7314 5458 c-39 -42 -55 -69 -82 -138 -48 -122 -62 -233 -41 -329 8
-37 14 -48 25 -44 10 4 14 23 14 72 0 92 23 179 76 294 45 94 66 177 47 177
-5 0 -23 -15 -39 -32z"/>
<path d="M2470 5468 c0 -5 8 -8 18 -8 10 0 50 -22 89 -49 67 -46 71 -47 92
-32 l22 17 -23 21 c-13 11 -34 27 -48 34 -28 15 -150 29 -150 17z"/>
<path d="M8907 5429 c-159 -43 -465 -81 -774 -95 -127 -6 -153 -9 -153 -22 0
-13 20 -14 148 -8 341 16 556 38 685 72 62 16 167 59 167 68 0 4 -1 6 -2 5 -2
-1 -34 -9 -71 -20z"/>
<path d="M2935 5355 c-91 -71 -116 -76 -154 -36 -21 22 -38 31 -60 31 -38 0
-51 -26 -48 -97 1 -40 -5 -59 -37 -111 -40 -65 -66 -137 -66 -179 0 -22 4 -24
36 -21 32 3 38 7 49 42 7 21 28 61 46 90 18 28 41 66 51 85 17 33 20 34 75 35
72 1 123 30 158 91 24 40 42 125 27 125 -4 0 -38 -25 -77 -55z"/>
<path d="M9920 5381 c0 -16 12 -21 73 -31 354 -58 901 -201 1086 -285 112 -51
49 -7 -84 59 -60 30 -150 69 -200 86 -150 52 -486 132 -690 163 -190 30 -185
29 -185 8z"/>
<path d="M1811 5211 c-11 -7 -10 -15 8 -44 63 -103 246 -219 426 -271 49 -14
94 -26 99 -26 6 0 -60 41 -147 90 -200 114 -232 136 -295 204 -51 56 -65 63
-91 47z"/>
<path d="M2403 5172 c-18 -8 -33 -20 -33 -26 0 -26 63 -117 110 -159 59 -53
77 -59 56 -19 -7 15 -28 63 -45 108 -43 111 -48 116 -88 96z"/>
<path d="M3650 5141 c0 -21 24 -25 260 -36 122 -6 406 -32 453 -41 15 -3 27
-9 27 -12 0 -4 -22 -37 -49 -73 l-49 -67 -64 13 c-75 16 -333 52 -403 57 -39
2 -50 0 -53 -13 -2 -13 14 -18 85 -28 94 -13 346 -58 375 -67 14 -4 4 -17 -44
-60 -40 -36 -67 -53 -77 -49 -79 30 -452 116 -606 139 -196 29 -212 30 -218 7
-3 -12 -2 -21 2 -21 57 0 558 -105 696 -146 l60 -17 -46 -15 c-45 -14 -46 -14
-180 37 -159 60 -239 85 -247 76 -12 -12 25 -31 163 -86 74 -30 135 -57 135
-60 0 -9 -512 -69 -597 -69 -7 0 -13 -9 -13 -20 0 -18 -7 -20 -58 -20 -46 0
-82 10 -172 46 -154 62 -184 78 -231 125 -32 32 -46 39 -65 35 -13 -4 -24 -12
-24 -20 0 -48 131 -156 218 -179 39 -10 41 -13 21 -18 -13 -4 -43 -7 -66 -8
-23 -1 -43 -6 -46 -13 -7 -19 -181 155 -229 227 -22 33 -45 79 -51 103 l-11
43 -41 -7 c-22 -3 -42 -8 -43 -9 -6 -6 29 -117 48 -155 37 -73 108 -138 194
-180 44 -21 93 -42 109 -45 15 -4 27 -12 27 -18 0 -18 293 -1 384 23 47 12
112 20 160 20 158 0 479 35 592 64 l51 13 174 -82 c377 -178 665 -355 909
-558 189 -157 500 -486 563 -595 l17 -30 -82 -60 c-46 -32 -158 -109 -249
-170 -186 -126 -249 -180 -134 -117 126 69 246 146 366 236 l118 88 31 -50
c37 -57 52 -67 19 -11 -13 20 -27 45 -33 54 -6 9 -8 19 -6 21 66 49 109 92
101 100 -7 7 -26 -4 -59 -32 -28 -22 -54 -41 -59 -41 -6 0 -15 11 -21 25 -6
13 -55 86 -109 162 -109 153 -332 388 -483 507 -241 190 -594 397 -939 550
l-63 28 42 24 43 25 111 -37 c160 -53 368 -136 519 -208 433 -206 867 -530
1109 -828 43 -54 81 -98 84 -98 7 0 -105 146 -195 254 -234 282 -552 518 -954
710 -170 82 -391 172 -533 218 l-94 30 39 43 c21 23 42 52 46 64 4 14 12 20
23 17 9 -3 98 -25 197 -51 646 -165 1208 -435 1541 -740 78 -71 187 -188 242
-260 40 -52 5 11 -60 108 -70 104 -262 302 -368 379 -313 228 -777 423 -1340
563 -107 27 -197 50 -199 51 -2 2 11 37 30 79 30 70 35 75 58 71 15 -3 82 -15
151 -26 729 -122 1420 -386 1882 -721 l83 -60 -80 76 c-331 313 -869 554
-1596 714 -327 73 -746 121 -1046 121 -164 0 -173 -1 -173 -19z"/>
<path d="M1608 5061 c-147 -98 -312 -265 -532 -536 l-90 -110 80 75 c184 172
491 422 602 490 28 17 52 35 52 40 0 4 -8 26 -19 49 l-18 42 -75 -50z"/>
<path d="M8765 5053 c-100 -36 -216 -51 -330 -42 -110 8 -155 5 -155 -12 0
-10 30 -18 85 -21 23 -2 -67 -19 -210 -41 -320 -50 -345 -55 -345 -74 0 -11 7
-14 24 -9 14 3 136 24 273 46 136 22 286 47 333 55 74 12 98 13 185 0 304 -43
666 -148 877 -255 32 -16 58 -27 58 -25 0 3 -25 22 -57 41 -172 110 -388 185
-722 248 -74 14 -136 27 -138 30 -2 2 16 8 39 14 46 12 138 50 138 57 0 7 -9
5 -55 -12z"/>
<path d="M1904 4886 c-107 -57 -192 -125 -328 -260 -181 -179 -344 -393 -495
-649 -48 -83 -139 -258 -128 -247 3 3 42 57 87 120 376 525 635 802 896 957
l82 49 -14 32 c-7 18 -19 32 -26 32 -7 0 -41 -15 -74 -34z"/>
<path d="M12148 4863 c-16 -15 -15 -19 14 -60 45 -67 123 -235 162 -353 41
-124 80 -347 96 -552 12 -145 8 -537 -6 -608 -3 -19 -4 -33 -1 -30 14 13 57
286 67 428 27 349 -38 725 -171 982 -45 87 -126 209 -139 210 -3 0 -13 -7 -22
-17z"/>
<path d="M10663 4833 c4 -6 41 -13 82 -16 91 -8 366 -53 413 -68 17 -6 32 -15
32 -20 0 -14 -107 -64 -198 -93 -125 -39 -144 -52 -135 -88 10 -37 97 -56 443
-98 52 -6 120 -18 150 -25 30 -8 56 -13 58 -11 4 5 -167 61 -243 80 -78 19
-324 60 -352 59 -13 -1 -23 1 -23 3 0 7 103 56 181 84 124 46 141 57 137 88
-4 36 -30 44 -243 75 -226 34 -309 42 -302 30z"/>
<path d="M1945 4688 c-12 -29 -48 -106 -79 -172 -113 -239 -138 -346 -139
-591 -1 -138 2 -171 21 -240 29 -100 79 -195 139 -264 36 -42 43 -55 32 -62
-8 -5 -20 -9 -26 -9 -7 0 -13 -4 -13 -8 0 -5 39 -87 88 -183 98 -197 189 -339
288 -449 73 -81 346 -341 352 -336 2 2 -12 35 -31 72 -38 74 -91 148 -259 354
-117 145 -206 284 -294 462 -39 79 -63 117 -73 115 -29 -4 -100 136 -139 278
-26 93 -22 481 6 586 18 65 94 278 161 447 18 44 18 52 5 52 -9 0 -25 -22 -39
-52z"/>
<path d="M11310 4708 c-46 -13 -54 -22 -39 -45 11 -18 20 -20 99 -15 47 2 133
-1 190 -8 172 -20 624 -113 649 -133 11 -10 13 -9 10 3 -15 48 -220 139 -379
169 -196 37 -452 51 -530 29z"/>
<path d="M8760 4556 c0 -22 6 -25 73 -36 219 -37 723 -233 867 -338 l35 -25
-40 42 c-94 100 -336 229 -569 305 -141 46 -271 76 -332 76 -29 0 -34 -3 -34
-24z"/>
<path d="M954 4378 l-29 -33 33 29 c30 28 37 36 29 36 -2 0 -16 -15 -33 -32z"/>
<path d="M11666 4374 c-10 -27 -7 -31 72 -76 93 -55 173 -115 271 -205 l73
-68 -47 -85 c-63 -115 -195 -432 -195 -471 0 -6 -17 4 -38 23 -70 63 -394 260
-406 247 -2 -2 -8 -13 -14 -25 -10 -19 -3 -25 84 -75 123 -69 349 -223 348
-235 -3 -17 -107 -399 -110 -403 -1 -2 -17 7 -33 18 -71 51 -371 174 -386 159
-3 -2 -6 -14 -7 -27 -3 -20 8 -27 82 -57 47 -19 139 -63 205 -97 96 -49 120
-66 119 -82 -2 -17 -89 -450 -98 -479 -1 -5 -10 13 -20 40 -25 68 -87 172
-168 281 -65 89 -69 92 -93 81 -14 -6 -25 -14 -25 -17 0 -3 25 -42 56 -86 144
-207 234 -350 234 -373 0 -13 -11 -90 -25 -171 -48 -289 -76 -518 -81 -661
l-4 -145 20 70 c76 260 170 673 256 1115 31 162 58 297 60 299 2 2 17 -7 33
-19 38 -27 40 -12 4 31 l-27 32 38 151 c21 83 45 173 53 201 15 49 15 49 29
25 16 -30 19 -6 4 34 -7 20 -1 49 29 138 102 303 204 502 308 598 l63 59 -22
43 c-13 24 -24 45 -25 47 -6 8 -85 -54 -129 -102 l-47 -50 -21 29 c-86 120
-224 228 -364 283 -44 18 -51 18 -56 5z"/>
<path d="M8810 4358 c-21 -12 -46 -17 -63 -13 -17 3 -34 -1 -42 -8 -7 -7 -73
-23 -146 -36 -316 -54 -549 -110 -549 -132 0 -3 6 -12 14 -18 10 -8 34 -6 97
8 46 11 154 32 239 46 200 33 294 53 353 77 l48 18 102 -44 c126 -55 264 -130
362 -196 153 -104 356 -290 420 -387 15 -24 30 -43 32 -43 6 0 -25 51 -86 145
-120 184 -387 380 -693 510 l-99 43 28 20 c37 27 27 33 -17 10z"/>
<path d="M99 4343 c-13 -16 -12 -17 4 -4 9 7 17 15 17 17 0 8 -8 3 -21 -13z"/>
<path d="M49 4283 c-13 -16 -12 -17 4 -4 9 7 17 15 17 17 0 8 -8 3 -21 -13z"/>
<path d="M11780 3956 c-30 -12 -120 -44 -200 -71 -140 -46 -429 -158 -491
-190 -24 -13 -29 -20 -23 -38 3 -12 7 -23 9 -25 6 -8 352 142 570 247 88 42
171 82 185 88 47 21 5 12 -50 -11z"/>
<path d="M9075 3869 c-10 -15 4 -28 56 -55 159 -80 419 -285 588 -462 72 -76
58 -46 -34 73 -77 99 -142 161 -265 252 -160 119 -332 214 -345 192z"/>
<path d="M8965 3799 c-22 -5 -166 -32 -320 -59 -279 -50 -312 -60 -339 -103
-16 -26 23 -58 81 -68 26 -4 156 -15 288 -24 245 -15 385 -32 385 -45 0 -15
-120 -69 -240 -108 -144 -47 -261 -78 -374 -98 -43 -7 -80 -15 -82 -16 -1 -2
0 -15 3 -30 5 -24 8 -26 42 -22 203 26 436 100 583 185 74 44 98 64 98 84 0
25 -36 35 -187 50 -149 16 -375 49 -429 64 -23 6 1 12 116 30 239 37 350 71
408 124 21 20 30 48 15 46 -5 -1 -26 -5 -48 -10z"/>
<path d="M1495 3670 c-113 -99 -166 -128 -336 -179 -235 -70 -270 -92 -369
-222 -70 -93 -145 -242 -186 -367 l-29 -87 -3 63 c-3 57 -5 62 -26 62 -23 0
-23 -2 -36 -189 -24 -360 -9 -413 164 -587 56 -55 134 -124 173 -153 l72 -53
-6 -58 c-18 -178 146 -323 477 -423 256 -78 537 -115 683 -91 44 8 48 20 10
27 -94 17 -517 112 -612 138 -263 70 -433 166 -482 274 -15 33 -26 95 -16 95
1 0 42 -20 92 -45 49 -25 94 -45 100 -45 5 0 -12 19 -40 43 -107 91 -373 337
-431 399 -77 83 -101 133 -115 238 -19 154 -13 189 61 335 111 221 187 342
270 425 73 73 78 76 205 124 247 93 268 105 388 227 93 94 118 131 89 128 -4
0 -47 -36 -97 -79z"/>
<path d="M9146 3543 c-15 -15 -2 -33 52 -68 75 -49 334 -311 397 -400 65 -94
72 -100 40 -35 -41 81 -126 207 -183 271 -84 93 -289 248 -306 232z"/>
<path d="M7084 3160 c-8 -8 -344 -96 -399 -104 -11 -2 -27 -6 -35 -9 -8 -3
-51 -16 -95 -27 -212 -58 -400 -130 -468 -182 -17 -12 -17 -16 -4 -27 13 -10
28 -6 84 22 84 42 212 86 364 126 252 66 343 92 431 126 91 35 148 68 137 79
-3 3 -10 1 -15 -4z"/>
<path d="M5480 2991 c-95 -48 -245 -141 -324 -200 -47 -35 -89 -55 -181 -85
-65 -22 -178 -69 -249 -105 -115 -57 -141 -75 -212 -145 -90 -89 -122 -143
-131 -217 -5 -44 -4 -49 14 -49 16 0 25 12 38 53 28 87 86 151 210 232 108 71
254 132 508 211 204 64 446 149 457 161 3 3 -6 3 -20 -1 -14 -4 -88 -18 -165
-30 -77 -13 -167 -31 -200 -39 -33 -9 -53 -11 -45 -6 53 34 285 166 335 191
73 37 67 32 59 52 -8 21 -7 21 -94 -23z"/>
<path d="M1320 2962 c-71 -24 -92 -35 -163 -88 -58 -43 -77 -48 -77 -18 0 40
-138 -24 -214 -101 -46 -46 -124 -155 -111 -155 3 0 37 26 75 59 39 32 103 76
143 96 39 21 74 41 77 45 10 13 127 48 196 60 88 14 203 0 308 -37 110 -39
253 -103 341 -152 44 -25 118 -59 165 -76 l85 -31 32 -67 c37 -76 58 -92 131
-100 29 -4 68 -16 87 -27 24 -15 35 -17 41 -9 8 13 -20 37 -82 70 -43 23 -58
47 -80 132 -18 69 -59 106 -159 142 -44 16 -111 47 -149 68 -103 58 -248 124
-361 163 -125 44 -208 51 -285 26z"/>
<path d="M9070 2943 c-1 -65 -151 -113 -529 -168 -92 -14 -186 -31 -211 -38
-40 -11 -45 -16 -48 -44 -3 -30 -1 -32 51 -47 31 -9 60 -16 66 -16 20 0 11 17
-16 30 -26 13 -19 15 102 31 325 44 418 67 511 127 67 44 103 98 85 130 -9 15
-10 15 -11 -5z"/>
<path d="M9740 2684 c0 -16 15 -23 88 -40 161 -39 360 -130 497 -229 115 -82
247 -212 306 -301 136 -202 236 -500 240 -709 1 -67 2 -68 10 -25 13 78 10
283 -7 370 -78 414 -400 745 -876 901 -65 21 -150 42 -188 45 -64 6 -70 5 -70
-12z"/>
<path d="M6690 2621 c-95 -50 -339 -118 -570 -160 -128 -24 -536 -81 -573 -81
-4 0 -7 -12 -7 -26 0 -26 1 -27 48 -20 43 5 33 -1 -106 -74 -85 -44 -157 -80
-161 -80 -3 0 -42 20 -86 45 -72 41 -80 44 -94 30 -15 -14 -14 -18 9 -35 14
-10 46 -29 73 -41 26 -12 47 -25 47 -28 0 -3 -52 -37 -116 -76 -64 -38 -163
-105 -220 -148 -105 -79 -140 -113 -61 -59 55 38 195 124 330 202 l109 63 101
-43 c233 -98 462 -162 622 -174 l70 -6 -78 15 c-104 20 -293 82 -474 156 -81
33 -156 63 -165 66 -10 3 -18 8 -18 12 0 4 78 48 173 98 172 91 172 91 277
103 366 41 680 125 831 221 90 58 108 76 39 40z"/>
<path d="M9010 2438 c0 -31 -83 -45 -454 -73 -381 -28 -356 -25 -356 -52 l0
-24 118 6 c448 24 536 35 630 75 61 26 85 50 72 70 -8 13 -10 12 -10 -2z"/>
<path d="M9040 2416 c0 -22 6 -25 48 -31 93 -12 199 -38 312 -77 124 -43 367
-144 440 -184 l45 -24 -30 26 c-117 99 -185 142 -315 197 -167 70 -341 117
-442 117 -55 0 -58 -1 -58 -24z"/>
<path d="M11367 2383 c-14 -3 -18 -11 -14 -26 26 -114 91 -366 98 -382 16 -36
2 265 -16 343 -17 74 -20 77 -68 65z"/>
<path d="M2494 2353 c12 -48 58 -134 69 -130 16 5 9 43 -14 89 -10 20 -19 44
-19 53 0 9 -9 15 -21 15 -18 0 -20 -4 -15 -27z"/>
<path d="M9273 2190 c-51 -11 -92 -31 -116 -58 -18 -20 -18 -20 1 -26 10 -4
36 2 58 11 59 26 279 23 398 -6 116 -28 364 -109 371 -121 12 -19 26 -11 16 9
-15 27 -115 91 -193 122 -142 58 -419 94 -535 69z"/>
<path d="M4282 2078 c-6 -24 -14 -90 -17 -148 -3 -58 -13 -134 -22 -170 -20
-84 -67 -184 -98 -208 -26 -21 -34 -52 -12 -52 40 0 94 60 137 153 54 114 80
315 51 390 -6 16 -11 39 -11 53 0 38 -16 28 -28 -18z"/>
<path d="M8991 2076 c-21 -25 -114 -59 -201 -73 -47 -7 -191 -16 -320 -18
-280 -7 -340 -12 -340 -29 0 -33 528 -25 655 9 68 19 185 77 211 106 9 10 15
19 12 19 -3 0 -11 -6 -17 -14z"/>
<path d="M2492 2000 c-100 -48 -172 -113 -202 -181 -42 -98 -63 -223 -64 -379
-1 -127 2 -153 22 -208 36 -99 100 -197 197 -300 49 -52 90 -100 90 -107 0
-15 197 -201 310 -292 104 -84 314 -209 387 -231 32 -9 58 -23 58 -30 0 -24
303 -154 474 -204 177 -51 278 -63 526 -62 243 0 330 9 785 74 269 39 429 68
528 96 160 46 533 115 1417 259 148 24 245 56 245 80 0 24 -98 36 -215 25
-229 -20 -1031 -174 -1362 -261 -148 -38 -228 -54 -342 -65 -82 -7 -226 -23
-320 -34 -94 -11 -268 -32 -386 -46 -342 -40 -633 -33 -855 22 -109 26 -365
109 -365 117 0 5 3 6 8 4 4 -3 34 -2 67 2 l60 7 -72 18 c-104 26 -476 213
-535 268 -7 7 -31 26 -53 43 -22 16 -83 66 -135 111 -52 44 -117 98 -144 118
-45 34 -49 35 -62 19 -12 -17 -13 -17 -27 1 -32 44 -147 287 -171 363 -44 142
-44 298 1 477 29 116 67 165 190 243 67 43 71 47 61 69 -6 13 -16 24 -23 24
-6 0 -48 -18 -93 -40z"/>
<path d="M2735 1937 c-10 -25 -11 -35 -2 -43 11 -10 389 -229 697 -402 336
-190 720 -325 1001 -354 93 -9 139 -9 228 1 163 20 193 29 101 30 -168 2 -478
82 -830 213 -178 66 -352 150 -590 285 -283 160 -352 196 -478 252 l-113 51
-14 -33z"/>
<path d="M9289 1804 c-21 -4 -25 -10 -22 -28 5 -23 9 -23 141 -29 82 -4 173
-14 227 -27 120 -27 407 -124 473 -160 63 -34 71 -17 15 29 -133 109 -449 207
-698 216 -60 2 -122 1 -136 -1z"/>
<path d="M8895 1689 c-70 -45 -213 -79 -615 -144 -118 -20 -238 -41 -265 -47
-46 -10 -64 -8 -200 25 -173 42 -165 41 -165 22 0 -31 306 -98 680 -150 234
-33 312 -39 198 -16 -213 43 -431 89 -422 90 6 1 91 12 190 26 223 31 320 50
406 82 72 25 198 94 218 118 16 19 12 18 -25 -6z"/>
<path d="M4935 1614 c-150 -21 -215 -37 -215 -51 0 -13 8 -14 38 -9 210 37
485 33 682 -8 69 -15 170 -42 225 -61 55 -19 101 -32 104 -30 6 7 -153 78
-229 104 -118 38 -210 51 -395 55 -99 3 -193 2 -210 0z"/>
<path d="M9157 1526 c-4 -10 23 -21 104 -41 131 -32 323 -93 667 -210 140 -48
256 -84 259 -82 8 8 -216 113 -333 155 -224 82 -538 172 -646 186 -34 4 -47 2
-51 -8z"/>
<path d="M6590 1500 c-71 -10 -101 -22 -92 -37 5 -8 20 -9 52 -3 86 17 292 8
485 -21 109 -16 497 -88 535 -99 19 -5 35 -8 37 -6 7 7 -236 87 -322 106 -206
44 -581 77 -695 60z"/>
<path d="M2905 1472 c-95 -60 -125 -137 -132 -338 -5 -121 -2 -152 16 -225 19
-76 106 -277 115 -268 3 2 -6 49 -20 104 -34 142 -47 265 -40 373 17 245 61
312 204 312 64 0 72 2 72 19 0 22 -21 29 -115 37 -58 4 -75 2 -100 -14z"/>
<path d="M11530 1374 c-93 -9 -187 -28 -649 -130 l-23 -5 26 47 c28 50 24 49
-53 -23 -26 -24 -54 -43 -63 -43 -12 0 -18 -8 -18 -21 0 -14 -51 -72 -147
-168 -120 -120 -161 -154 -214 -180 -114 -56 -222 -52 -467 15 -106 29 -140
44 -207 88 -141 93 -227 118 -408 117 -237 -1 -517 -82 -774 -224 -84 -46
-111 -66 -107 -77 18 -43 15 -47 -33 -67 -26 -12 -84 -32 -128 -46 -44 -13
-158 -55 -254 -92 -96 -37 -208 -75 -250 -86 -84 -20 -239 -39 -326 -39 l-55
0 0 -41 0 -42 148 6 c204 7 302 30 523 123 115 49 253 124 333 183 56 42 335
176 435 210 176 60 343 91 491 91 127 0 214 -12 343 -47 77 -20 101 -31 107
-47 13 -34 247 -113 407 -136 133 -20 236 10 361 105 66 49 175 169 244 266
l40 56 96 12 c170 21 654 133 754 175 l30 13 -32 7 c-32 6 -61 6 -130 0z"/>
<path d="M5390 1294 c-89 -10 -191 -27 -248 -41 -64 -16 -64 -16 -58 -47 4
-17 10 -34 14 -38 4 -4 53 1 107 12 133 27 370 36 516 21 63 -7 226 -35 363
-62 136 -28 250 -48 253 -45 2 2 -33 25 -79 50 -97 53 -264 111 -381 132 -78
15 -412 27 -487 18z"/>
<path d="M9515 1241 c-90 -23 -134 -81 -109 -144 10 -27 44 -8 44 25 0 24 6
32 35 44 45 18 155 18 229 -1 80 -21 216 -78 309 -130 42 -24 77 -40 77 -36 0
14 -114 116 -168 150 -110 70 -323 117 -417 92z"/>
<path d="M4054 1136 c-3 -7 17 -51 44 -97 93 -159 169 -304 197 -377 16 -39
30 -70 32 -68 10 10 -80 252 -132 357 -92 184 -125 227 -141 185z"/>
<path d="M6810 1139 c-64 -7 -251 -18 -327 -19 -16 0 -23 -6 -23 -19 0 -36 19
-38 195 -24 94 7 196 12 228 11 l58 -3 -143 -85 c-235 -140 -258 -156 -258
-184 0 -48 34 -57 237 -63 208 -7 212 -10 74 -59 -174 -62 -233 -87 -238 -101
-3 -8 4 -24 15 -36 23 -23 20 -23 287 12 l50 6 -49 8 c-27 4 -70 7 -95 8 -53
0 -53 1 92 55 106 40 157 78 157 116 0 40 -34 48 -218 49 -247 2 -246 1 -117
79 245 150 270 166 285 193 14 27 14 29 -9 48 -26 21 -68 23 -201 8z"/>
<path d="M5430 973 c-25 -2 -112 -15 -195 -28 -82 -13 -172 -27 -200 -31 -62
-8 -64 -9 -58 -34 6 -22 1 -23 208 12 139 23 326 67 340 79 9 9 -4 9 -95 2z"/>
<path d="M5127 813 c-27 -20 -47 -43 -47 -54 0 -44 65 -58 355 -74 l119 -7
-45 -17 c-71 -27 -149 -74 -155 -94 -13 -43 51 -90 163 -120 24 -6 43 -14 43
-17 0 -3 -43 -25 -96 -49 -59 -28 -113 -61 -142 -88 l-47 -44 75 4 c62 4 93
12 183 52 134 59 169 89 165 142 -4 44 -18 53 -131 84 -40 11 -75 24 -80 28
-12 12 24 39 114 84 48 24 85 49 87 59 8 42 -42 50 -431 74 l-99 6 22 22 c16
18 18 25 8 34 -10 8 -25 1 -61 -25z"/>
<path d="M4114 523 c14 -58 60 -136 112 -191 l54 -57 -54 90 c-29 50 -61 111
-71 138 -20 52 -52 68 -41 20z"/>
</g>
</svg>
