<?xml version="1.0" standalone="no"?>
<!DOCTYPE svg PUBLIC "-//W3C//DTD SVG 20010904//EN"
 "http://www.w3.org/TR/2001/REC-SVG-20010904/DTD/svg10.dtd">
<svg version="1.0" xmlns="http://www.w3.org/2000/svg"
 width="1280.000000pt" height="1018.000000pt" viewBox="0 0 1280.000000 1018.000000"
 preserveAspectRatio="xMidYMid meet">
<metadata>
Created by potrace 1.15, written by Peter Selinger 2001-2017
</metadata>
<g transform="translate(0.000000,1018.000000) scale(0.100000,-0.100000)"
fill="#000000" stroke="none">
<path d="M11756 10063 c-105 -329 -80 -669 65 -875 23 -32 24 -86 4 -245 -69
-542 -277 -994 -621 -1353 -338 -352 -753 -566 -1422 -734 -874 -219 -1820
-261 -2862 -125 -692 89 -1471 280 -2117 517 -130 48 -153 59 -153 77 1 11 11
70 23 130 l22 110 90 6 c415 27 881 400 1054 843 60 154 84 282 84 456 0 109
-5 169 -20 240 -32 145 -35 150 -85 150 -175 0 -376 -78 -537 -206 -109 -88
-205 -199 -332 -386 -57 -84 -128 -182 -158 -218 -64 -78 -143 -160 -152 -160
-3 0 9 39 27 88 100 268 122 693 59 1142 -19 129 -75 400 -84 400 -4 0 -17
-60 -30 -132 -66 -376 -172 -664 -335 -908 -72 -107 -216 -262 -293 -314 l-42
-28 -52 46 c-154 138 -368 163 -576 66 l-63 -29 -57 35 c-78 47 -122 58 -228
58 -73 0 -101 -5 -152 -26 -35 -14 -63 -22 -63 -16 0 5 -28 35 -62 67 -159
149 -238 398 -238 747 0 90 5 208 11 263 6 56 9 106 7 113 -8 22 -129 -166
-198 -307 -116 -237 -159 -397 -169 -632 l-6 -152 -60 76 c-107 136 -275 270
-452 361 -94 48 -244 112 -262 112 -14 0 -28 -52 -52 -185 -28 -156 -31 -439
-6 -562 36 -179 99 -315 192 -409 108 -111 302 -220 487 -275 40 -12 76 -25
80 -28 4 -4 -17 -80 -48 -170 -101 -300 -237 -628 -479 -1156 -199 -434 -164
-382 -297 -448 -62 -30 -148 -80 -192 -110 l-78 -54 -50 15 c-195 57 -412 -92
-473 -323 -19 -76 -19 -176 1 -271 l15 -75 -35 -99 c-46 -130 -66 -240 -66
-367 0 -253 90 -455 288 -645 164 -156 347 -259 550 -306 121 -29 204 -44 317
-57 50 -6 51 -8 74 -58 31 -66 110 -144 184 -180 110 -53 195 -70 373 -71
l161 -1 -102 -210 c-56 -115 -184 -380 -285 -587 l-184 -377 -67 -11 c-214
-36 -405 -210 -548 -497 -39 -78 -111 -259 -111 -279 0 -8 178 -92 263 -125
l89 -33 -214 -42 c-556 -109 -913 -231 -1043 -358 -88 -86 -85 -157 9 -243
315 -287 1770 -538 3791 -652 937 -54 1414 -66 2570 -66 971 0 1246 5 1940 35
748 33 1658 100 2160 160 263 31 526 65 620 80 413 66 531 87 763 140 447 101
724 209 829 323 73 79 69 143 -13 223 -129 127 -466 243 -1019 353 -136 27
-248 51 -250 53 -2 2 1 26 6 53 51 264 79 618 79 990 0 394 -29 742 -90 1086
-11 63 -39 220 -61 349 -91 532 -176 915 -300 1350 -76 267 -218 682 -309 905
-45 110 -84 207 -86 215 -4 10 28 38 98 86 523 362 918 826 1151 1356 177 402
266 875 238 1268 -8 108 -7 147 4 195 22 89 19 253 -5 355 -27 111 -111 282
-193 390 -65 86 -177 200 -196 200 -5 0 -26 -48 -45 -107z m-7789 -7521 l398
-269 9 -307 c4 -169 7 -309 5 -310 -2 -2 -110 -9 -239 -15 -129 -6 -275 -14
-323 -18 l-88 -6 26 68 c14 37 23 70 20 73 -2 3 -28 -15 -57 -40 -29 -24 -58
-47 -64 -51 -18 -11 3 70 32 122 13 24 24 45 24 48 0 11 -47 -24 -106 -79
l-65 -62 2 82 c1 45 0 84 -2 87 -3 2 -15 -36 -28 -85 -13 -50 -26 -90 -30 -90
-3 0 -21 23 -40 51 -34 50 -165 179 -182 179 -5 0 7 -32 27 -71 32 -65 74
-199 74 -238 0 -14 -45 -20 -327 -43 -180 -15 -328 -26 -329 -25 -1 1 4 31 12
67 7 36 14 92 14 126 l0 61 411 506 c227 279 416 507 420 507 5 0 187 -121
406 -268z m6088 -292 c63 -137 135 -312 176 -431 l23 -66 -44 -111 c-39 -97
-47 -111 -65 -107 -97 22 -1644 125 -1883 125 l-33 0 3 150 c2 82 6 150 11
150 4 0 7 -10 7 -23 0 -39 50 -125 91 -158 123 -97 248 -63 348 96 l41 65 63
0 63 0 34 -52 c51 -77 105 -111 185 -116 77 -5 114 8 155 54 33 38 49 87 52
162 l3 50 88 29 87 29 27 -28 c48 -50 129 -83 203 -82 95 1 151 36 185 116 19
48 19 142 -1 201 l-16 46 49 55 48 55 19 -37 c11 -20 47 -98 81 -172z m-2685
-82 c0 -7 -16 -94 -37 -193 -33 -164 -39 -184 -73 -230 l-37 -50 -632 0 c-476
0 -631 3 -631 12 0 6 16 32 35 57 19 25 33 46 31 46 -2 0 -40 -20 -84 -45 -44
-25 -85 -45 -91 -45 -24 0 21 150 83 274 24 47 39 86 35 86 -5 0 -35 -26 -66
-58 -57 -56 -110 -129 -166 -227 l-29 -50 6 50 c25 206 21 219 -36 119 -17
-30 -32 -53 -34 -52 -2 2 12 67 30 143 l33 140 49 -2 c27 -1 130 -7 228 -12
355 -21 812 -10 1174 28 215 23 212 23 212 9z"/>
</g>
</svg>
