<?xml version="1.0" standalone="no"?>
<!DOCTYPE svg PUBLIC "-//W3C//DTD SVG 20010904//EN"
 "http://www.w3.org/TR/2001/REC-SVG-20010904/DTD/svg10.dtd">
<svg version="1.0" xmlns="http://www.w3.org/2000/svg"
 width="1280.000000pt" height="1258.000000pt" viewBox="0 0 1280.000000 1258.000000"
 preserveAspectRatio="xMidYMid meet">
<metadata>
Created by potrace 1.15, written by Peter Selinger 2001-2017
</metadata>
<g transform="translate(0.000000,1258.000000) scale(0.100000,-0.100000)"
fill="#000000" stroke="none">
<path d="M5850 12573 c-100 -7 -251 -37 -349 -69 -383 -126 -626 -407 -711
-825 -26 -126 -36 -333 -21 -414 31 -163 136 -269 317 -320 80 -22 348 -31
485 -16 234 27 379 55 1044 205 326 73 480 101 639 116 124 11 280 3 272 -14
-2 -6 -32 -78 -66 -161 -70 -171 -228 -485 -314 -624 -201 -323 -381 -479
-691 -599 -404 -157 -502 -202 -715 -328 -216 -128 -341 -251 -419 -409 -52
-106 -71 -189 -71 -312 0 -307 194 -622 515 -835 256 -170 619 -304 995 -368
225 -38 351 -64 381 -80 49 -26 51 -30 24 -62 -21 -25 -25 -40 -25 -99 0 -59
-6 -82 -35 -147 -24 -50 -34 -85 -30 -100 7 -27 -3 -41 -265 -393 -483 -646
-704 -1056 -825 -1522 l-33 -128 -104 203 c-521 1009 -999 1544 -1523 1704
-83 26 -104 28 -260 28 -146 1 -182 -2 -251 -21 -526 -144 -1030 -678 -1591
-1688 -90 -161 -371 -713 -394 -772 -7 -19 -4 -25 18 -37 l27 -13 152 306
c628 1259 1182 1934 1739 2120 247 82 470 64 721 -59 445 -216 877 -753 1325
-1644 l121 -238 -13 -146 c-37 -451 68 -888 321 -1326 53 -92 72 -135 79 -181
5 -33 21 -125 35 -205 14 -80 59 -370 101 -645 176 -1159 275 -1663 361 -1845
19 -41 53 -98 75 -127 206 -274 622 -474 984 -475 177 0 268 31 377 131 69 63
162 122 241 154 111 44 206 59 442 66 207 6 224 8 270 31 47 23 53 32 101 128
189 377 294 1310 294 2617 l0 381 99 124 c284 360 421 655 467 1004 8 61 18
113 22 117 4 4 48 21 97 39 50 19 97 39 105 45 8 6 87 40 175 75 88 36 257
113 375 172 199 99 222 113 306 190 125 114 160 156 238 281 83 134 92 154
111 263 30 175 13 259 -66 311 -37 24 -52 28 -118 28 -141 0 -230 -52 -696
-401 -352 -264 -553 -405 -580 -408 -12 -1 -27 34 -59 129 -75 224 -158 397
-302 627 -90 144 -178 309 -229 428 -92 214 -178 527 -154 556 9 11 6 32 -10
93 -20 74 -21 82 -6 150 20 97 19 124 -6 147 -20 18 -21 25 -14 119 9 133 48
363 86 505 61 230 111 366 368 997 165 406 240 686 241 898 l1 70 18 -35 c10
-19 76 -168 145 -330 217 -504 395 -848 564 -1085 72 -101 245 -281 331 -344
197 -146 450 -221 741 -221 318 0 578 100 750 288 303 330 260 770 -138 1402
-97 154 -381 562 -455 655 -350 435 -816 688 -1417 772 -222 30 -911 18 -955
-18 -7 -5 -16 4 -25 24 -7 18 -93 111 -189 208 -239 238 -366 323 -579 385
-293 85 -731 19 -992 -150 l-68 -44 -31 61 c-62 125 -204 284 -376 423 -426
341 -1032 543 -1525 507z m3599 -3960 c-24 -32 -95 -109 -158 -173 l-114 -115
94 103 c52 57 121 137 154 177 70 86 88 92 24 8z m-584 -549 c-55 -45 -279
-191 -375 -245 -130 -71 -387 -185 -397 -176 -2 2 27 17 64 32 154 64 445 221
583 314 150 102 176 118 125 75z"/>
<path d="M795 6186 c-22 -9 -55 -31 -72 -50 -30 -32 -33 -41 -33 -98 1 -137
120 -322 276 -425 41 -27 56 -45 67 -76 16 -50 38 -67 62 -47 13 11 15 23 11
53 -5 32 -21 53 -98 125 -155 147 -258 292 -258 364 0 38 38 76 90 89 227 59
522 -362 789 -1126 53 -151 58 -160 84 -163 18 -2 29 2 33 13 15 37 -168 516
-287 754 -147 295 -308 499 -444 565 -72 35 -161 43 -220 22z"/>
<path d="M2965 5018 c-3 -7 -18 -65 -34 -128 -36 -147 -65 -204 -142 -277 -85
-81 -186 -209 -205 -260 -34 -89 12 -120 200 -133 287 -21 675 -165 936 -349
87 -61 217 -194 259 -265 41 -69 70 -149 71 -193 0 -22 -9 -43 -29 -65 -26
-29 -35 -33 -99 -36 -119 -7 -312 44 -552 145 -137 58 -363 136 -487 167 -196
50 -330 51 -380 5 -54 -52 -51 -118 22 -381 25 -89 50 -201 56 -248 26 -218
-55 -371 -245 -464 -176 -85 -342 -106 -442 -54 -151 79 -203 228 -244 708
-23 262 -39 373 -70 472 -35 114 -109 191 -195 204 -84 12 -186 -35 -569 -264
-554 -330 -704 -384 -740 -266 -9 30 20 163 55 253 92 231 275 488 533 747
215 214 391 349 568 435 102 49 114 59 99 88 -7 11 -17 21 -25 21 -26 0 -195
-90 -296 -158 -144 -96 -271 -205 -430 -368 -274 -280 -450 -542 -534 -795
-64 -190 -58 -297 19 -333 43 -21 86 -20 176 3 159 41 377 152 746 382 282
176 289 179 359 179 53 0 59 -2 99 -42 74 -76 100 -182 135 -561 31 -340 56
-468 117 -596 91 -192 259 -255 499 -186 208 60 364 166 424 289 68 139 61
269 -31 553 -78 242 -77 306 7 333 95 32 368 -38 747 -190 278 -111 454 -155
592 -148 130 7 185 56 185 165 0 223 -228 476 -592 659 -258 130 -504 205
-765 235 -57 6 -103 15 -103 21 0 24 40 79 125 175 73 81 105 127 144 206 51
102 106 270 99 304 -4 22 -56 31 -63 11z"/>
</g>
</svg>
