<?xml version="1.0" standalone="no"?>
<!DOCTYPE svg PUBLIC "-//W3C//DTD SVG 20010904//EN"
 "http://www.w3.org/TR/2001/REC-SVG-20010904/DTD/svg10.dtd">
<svg version="1.0" xmlns="http://www.w3.org/2000/svg"
 width="1280.000000pt" height="1280.000000pt" viewBox="0 0 1280.000000 1280.000000"
 preserveAspectRatio="xMidYMid meet">
<metadata>
Created by potrace 1.15, written by Peter Selinger 2001-2017
</metadata>
<g transform="translate(0.000000,1280.000000) scale(0.100000,-0.100000)"
fill="#000000" stroke="none">
<path d="M2367 11930 c-56 -14 -75 -27 -92 -60 -17 -33 -36 -120 -26 -120 3 0
16 18 29 41 34 59 75 81 137 74 69 -9 137 -48 201 -118 54 -58 157 -197 151
-203 -2 -2 -41 16 -87 41 -142 73 -207 90 -340 88 -65 0 -147 -8 -190 -17 -85
-19 -238 -90 -290 -135 l-35 -30 50 19 c151 56 494 52 573 -7 14 -10 27 -24
29 -30 6 -18 -108 -26 -261 -19 -77 4 -185 3 -239 -3 -88 -9 -106 -14 -165
-50 -37 -21 -96 -52 -132 -66 -112 -47 -161 -75 -212 -123 -44 -41 -109 -142
-92 -142 3 0 25 16 47 36 52 43 142 88 222 109 106 28 335 32 335 6 0 -4 -21
-12 -46 -19 -25 -7 -79 -29 -119 -49 -146 -72 -238 -168 -250 -262 -13 -99 -9
-92 -112 -145 -53 -27 -126 -71 -161 -99 -77 -58 -243 -209 -237 -215 2 -3 36
22 75 54 209 174 344 237 466 218 l47 -7 -75 -23 c-225 -71 -401 -289 -459
-567 -32 -157 -20 -326 32 -461 21 -53 47 -90 34 -49 -13 44 -21 250 -13 355
16 227 98 423 216 516 44 35 125 76 167 86 17 4 38 9 47 12 12 4 23 -7 38 -36
12 -23 20 -43 18 -45 -2 -1 -30 -7 -63 -13 -102 -18 -171 -49 -233 -107 -127
-118 -159 -259 -137 -617 l7 -128 -39 -52 c-22 -29 -73 -89 -113 -133 -80 -87
-146 -209 -194 -359 -30 -90 -35 -205 -12 -260 7 -18 48 -73 91 -122 162 -188
205 -274 205 -411 0 -168 -54 -304 -164 -417 -79 -81 -161 -138 -332 -231
-143 -79 -142 -87 6 -37 160 53 345 158 552 314 142 107 222 157 234 146 12
-13 -7 -59 -40 -96 -53 -58 -159 -221 -214 -329 -143 -280 -177 -531 -101
-756 27 -84 86 -203 95 -195 2 2 -3 24 -10 49 -26 84 -46 233 -46 334 0 119
23 222 71 316 33 66 99 160 99 141 0 -5 5 -56 10 -113 21 -207 69 -404 145
-592 41 -103 133 -277 146 -277 8 0 -5 75 -36 205 -14 60 -31 156 -38 212 -19
177 17 311 106 385 l45 37 6 -57 c3 -31 11 -103 16 -159 5 -55 18 -125 29
-154 11 -28 17 -57 13 -63 -3 -6 -7 -94 -7 -196 -1 -164 -4 -192 -23 -244 -12
-33 -33 -71 -46 -85 -32 -35 -60 -94 -77 -161 -19 -79 -17 -269 4 -359 22 -90
15 -174 -19 -246 -42 -91 -109 -502 -90 -552 6 -14 16 -2 47 57 22 41 37 64
34 50 -3 -14 -9 -86 -12 -160 -10 -249 37 -520 91 -520 19 0 29 30 15 46 -17
20 -4 86 30 152 56 109 57 108 64 -14 6 -106 45 -302 84 -429 l19 -60 28 100
c33 116 55 175 66 175 4 0 10 -17 14 -37 7 -49 61 -139 148 -249 37 -48 68
-92 68 -97 0 -5 -22 -48 -49 -96 -90 -161 -171 -330 -191 -403 -37 -134 -25
-239 57 -512 37 -126 55 -167 104 -246 92 -147 113 -199 172 -432 57 -222 134
-431 182 -495 59 -76 178 -111 228 -66 16 15 41 22 90 26 84 6 177 50 250 117
48 44 49 47 82 180 43 168 46 252 11 325 -23 48 -122 171 -151 188 -33 18 -68
222 -69 408 -1 112 2 150 13 163 19 23 28 13 76 -92 l41 -87 44 80 c60 112 56
108 99 85 95 -48 155 -157 226 -410 29 -102 51 -167 56 -159 4 8 40 100 80
204 40 105 76 194 80 198 7 9 34 -98 68 -274 71 -363 78 -719 20 -1041 -18
-99 -23 -112 -51 -136 -80 -68 -218 -239 -254 -315 -28 -60 -32 -152 -10 -195
22 -41 150 -142 180 -142 9 0 16 -7 16 -15 0 -8 9 -24 20 -35 24 -24 95 -26
245 -5 89 12 108 12 168 -3 86 -20 114 -13 226 54 185 109 243 201 297 472 36
181 117 435 202 634 84 196 91 197 32 5 -22 -71 -38 -132 -36 -134 14 -14 213
271 275 396 37 74 52 114 66 176 5 23 8 26 15 14 15 -25 -9 -108 -74 -262 -21
-49 -14 -47 17 6 14 23 57 80 97 126 114 135 154 201 242 401 28 63 53 117 56
120 17 18 -13 -136 -47 -241 -42 -129 -47 -149 -33 -149 4 0 59 66 122 148
183 234 204 253 336 296 53 17 91 50 116 100 14 28 15 24 16 -75 0 -59 -7
-145 -17 -201 -15 -79 -16 -98 -5 -98 30 0 106 180 190 450 23 74 47 136 52
138 6 2 18 -9 28 -23 21 -32 30 -228 17 -348 -5 -42 -6 -74 -2 -70 9 9 143
306 179 397 21 52 24 56 32 36 4 -12 7 -84 6 -159 -1 -119 2 -149 26 -244 31
-124 50 -174 60 -159 10 17 25 162 32 317 4 77 10 145 13 152 4 7 30 -29 60
-85 94 -169 152 -246 171 -226 5 5 -3 89 -19 197 -15 103 -24 184 -21 180 4
-5 26 -62 50 -128 55 -155 112 -272 156 -324 37 -42 88 -76 103 -67 4 3 30
104 56 226 27 121 52 220 56 220 4 0 8 -31 11 -68 5 -99 39 -164 203 -386 8
-11 17 -17 21 -14 3 4 12 55 20 115 19 143 40 185 120 234 l61 37 -1 -102 c0
-84 4 -110 23 -153 24 -55 51 -87 51 -62 0 8 -7 39 -15 69 -19 70 -19 123 0
213 27 129 36 162 52 186 15 23 17 20 73 -125 58 -151 112 -268 129 -278 16
-10 21 55 21 284 0 126 3 236 6 245 4 10 17 -11 39 -64 56 -140 161 -289 247
-351 57 -42 72 -40 64 7 -13 76 -19 173 -10 173 5 0 40 -34 77 -75 61 -67 72
-85 103 -177 30 -86 35 -115 35 -187 0 -125 -22 -227 -82 -382 l-29 -76 -78
-28 c-257 -93 -322 -163 -322 -348 0 -103 15 -132 95 -188 59 -41 60 -42 185
-51 69 -6 157 -8 195 -5 179 13 540 178 718 327 l37 32 0 -79 c0 -100 -35
-334 -57 -380 -9 -19 -53 -65 -98 -103 -106 -89 -148 -138 -174 -206 -30 -78
-28 -144 4 -174 14 -13 25 -29 25 -36 0 -21 51 -74 92 -95 47 -24 142 -36 223
-28 40 4 73 1 100 -8 89 -31 100 -33 152 -23 134 24 323 131 451 254 71 68 91
95 130 176 l47 95 1 135 c2 148 8 190 61 420 84 369 117 475 203 654 44 93 82
167 85 165 6 -7 -52 -288 -63 -302 -8 -10 -28 -106 -47 -230 -8 -52 5 -67 22
-26 76 179 261 808 326 1109 12 52 -2 -646 -18 -914 -9 -153 -15 -299 -13
-325 3 -41 7 -30 40 104 66 268 108 551 168 1145 26 255 49 431 97 762 3 21 9
38 13 38 17 0 22 -216 16 -665 -4 -285 -3 -464 3 -455 20 33 142 645 206 1035
20 121 38 225 40 230 7 16 -6 -156 -26 -364 -10 -107 -17 -196 -15 -198 4 -5
69 165 112 292 126 377 263 917 315 1240 13 78 13 79 20 40 13 -68 9 -365 -5
-475 -17 -121 -48 -269 -105 -496 -22 -87 -49 -211 -61 -274 -24 -128 -39
-416 -21 -390 6 8 11 28 11 44 0 57 51 278 119 517 108 379 145 538 191 829
29 183 30 185 25 29 -5 -167 -38 -383 -116 -767 -33 -162 -58 -296 -56 -298 2
-3 21 41 41 98 101 288 188 640 231 934 l14 99 -4 -165 c-9 -304 -39 -554
-126 -1070 -59 -350 -100 -622 -94 -628 2 -2 8 13 14 35 6 21 67 236 136 478
145 513 202 732 245 940 31 151 116 724 144 975 65 577 42 946 -73 1136 -22
37 -58 100 -78 141 l-38 73 42 37 c57 51 85 110 91 192 9 126 -49 293 -161
465 -61 92 -162 205 -213 237 -20 12 -36 32 -40 47 -42 192 -155 462 -251 602
-102 147 -145 191 -253 262 -233 153 -502 262 -741 299 -347 54 -678 6 -972
-142 -107 -55 -199 -124 -307 -233 -57 -58 -110 -106 -116 -106 -19 0 -24 25
-13 64 21 74 172 229 255 261 77 28 144 64 144 77 0 16 -210 3 -276 -16 -66
-20 -347 -156 -449 -217 -102 -61 -157 -109 -211 -181 -50 -69 -60 -98 -69
-200 -4 -43 -10 -78 -15 -78 -5 0 -13 22 -19 48 -33 155 126 384 383 550 87
56 138 76 296 113 440 104 546 144 630 235 35 38 55 82 32 72 -4 -2 -30 -15
-59 -30 -99 -52 -306 -129 -458 -170 -66 -18 -111 -22 -255 -24 -185 -2 -255
-12 -404 -60 -211 -68 -400 -201 -523 -368 -57 -77 -83 -130 -116 -231 -36
-112 -47 -182 -47 -306 0 -126 17 -222 60 -349 18 -50 31 -93 29 -94 -38 -34
-246 -143 -313 -164 -69 -21 -197 -20 -263 2 -52 17 -53 17 -78 -3 -34 -26
-103 -48 -190 -61 -107 -15 -118 -14 -105 9 15 28 12 61 -4 61 -8 0 -71 -14
-141 -31 -138 -33 -163 -33 -144 2 8 16 8 23 -1 29 -11 7 -147 29 -280 46 -72
9 -401 116 -464 152 -62 34 -91 71 -82 105 3 14 46 66 95 115 92 93 118 139
108 192 -4 20 3 44 24 83 41 77 47 138 20 225 -11 39 -21 89 -21 112 0 23 -11
85 -25 139 -20 77 -23 104 -15 125 5 15 10 39 10 53 0 43 7 24 33 -92 45 -197
87 -265 201 -322 39 -19 80 -43 90 -52 24 -20 23 -18 -67 118 -37 58 -87 143
-110 190 -44 93 -43 78 -36 296 2 93 -21 195 -56 241 -26 34 -16 37 20 5 35
-30 144 -91 164 -91 6 0 -13 30 -41 68 -98 128 -238 363 -238 399 0 4 -16 28
-35 52 -19 24 -33 46 -31 49 8 7 178 -88 208 -116 15 -14 53 -60 85 -103 32
-43 59 -76 61 -74 8 8 -59 139 -102 199 -24 34 -83 99 -130 144 -48 46 -78 81
-67 77 31 -10 26 2 -26 63 -27 30 -61 71 -78 91 l-30 36 40 -29 c88 -65 184
-143 248 -205 61 -59 67 -62 67 -39 0 71 -64 198 -144 286 -28 30 -44 53 -36
50 8 -4 80 -36 160 -71 203 -90 297 -130 285 -119 -5 5 -48 35 -95 67 -140 96
-219 162 -342 286 -121 121 -125 123 -273 175 -18 6 -17 7 9 15 22 6 44 2 90
-18 171 -72 402 -150 391 -133 -4 6 -12 10 -18 10 -16 1 -130 85 -281 207
-133 108 -207 153 -254 153 -21 0 -37 11 -65 44 l-37 45 26 20 c17 13 41 21
66 21 56 0 183 -28 253 -55 l60 -24 -45 41 c-56 50 -223 132 -310 153 -131 30
-271 14 -367 -42 -43 -25 -63 -24 -63 3 0 18 -153 314 -162 314 -5 0 -8 -8 -8
-17 -1 -43 -17 -47 -57 -16 -47 37 -101 65 -173 88 -60 19 -140 57 -180 85
-14 10 -51 25 -83 34 -47 14 -73 30 -133 87 -116 106 -155 121 -169 59 -5 -23
-11 -29 -23 -26 -35 11 -149 26 -193 26 -31 0 -77 13 -140 39 -112 47 -234 65
-245 37 -3 -9 -13 -16 -21 -16 -7 0 -24 -11 -36 -23 -18 -20 -36 -25 -102 -31
-103 -8 -276 -49 -390 -92 -50 -19 -103 -34 -118 -34 -15 0 -45 -9 -67 -20
-22 -11 -41 -20 -44 -20 -8 0 -63 104 -76 142 -33 107 -169 226 -310 274 -83
28 -203 39 -263 24z m2148 -355 c17 -18 45 -51 63 -73 23 -29 45 -45 75 -53
28 -8 55 -27 83 -57 40 -45 40 -45 66 -28 25 16 28 15 145 -43 65 -33 140 -78
165 -100 51 -45 60 -48 78 -26 19 23 27 18 40 -22 12 -39 52 -143 76 -199 11
-24 12 -49 4 -105 -8 -71 -69 -291 -91 -332 -6 -10 -8 -21 -5 -25 3 -3 6 0 6
6 0 7 5 12 10 12 24 0 15 -33 -105 -375 -5 -15 0 -13 20 9 14 15 28 27 30 24
6 -5 -78 -265 -100 -310 -16 -33 -22 -37 -44 -30 -59 16 -137 7 -202 -26 -76
-37 -110 -70 -164 -160 -32 -53 -46 -68 -68 -70 -21 -3 -27 -9 -27 -27 0 -32
16 -36 166 -33 l129 2 110 -54 c78 -39 114 -63 122 -81 35 -72 56 -232 39
-286 -4 -12 -25 -28 -53 -38 -69 -27 -211 -126 -274 -191 -30 -33 -70 -88 -88
-124 -83 -162 -207 -298 -339 -368 -63 -34 -233 -82 -289 -82 -20 0 -52 10
-73 21 -67 38 -97 1 -37 -45 87 -66 214 -51 416 48 152 75 252 176 370 378 53
90 103 141 204 210 87 59 151 88 194 88 73 0 102 -59 128 -261 25 -191 41
-231 115 -290 89 -69 106 -37 31 58 -45 58 -49 66 -60 155 -31 233 -70 345
-133 387 l-36 23 -7 107 c-3 58 -13 128 -21 154 -14 45 -14 50 5 76 11 16 34
34 51 41 34 14 37 21 45 144 6 100 20 134 74 175 l34 26 -25 -40 c-14 -22 -36
-69 -48 -103 -20 -55 -22 -69 -12 -96 18 -48 15 -67 -14 -97 -38 -39 -27 -59
33 -59 42 0 51 -4 88 -42 23 -24 62 -63 88 -86 109 -101 207 -336 207 -496 0
-62 -34 -225 -90 -437 -29 -112 -63 -204 -122 -337 -75 -170 -85 -186 -125
-213 -94 -65 -116 -67 -242 -27 -145 47 -360 -14 -505 -143 -36 -32 -75 -63
-85 -68 -84 -45 -308 -43 -560 6 -73 14 -89 22 -135 60 -68 59 -169 107 -291
137 -161 40 -247 49 -484 50 l-223 2 -18 24 c-37 51 -54 138 -55 275 0 191 0
192 100 267 46 35 84 66 85 69 0 4 -24 17 -52 29 l-53 23 123 41 c68 23 120
45 116 49 -10 10 -71 8 -123 -4 -50 -11 -63 -4 -50 29 6 15 35 34 86 58 l78
36 -73 23 c-41 13 -75 25 -78 28 -2 2 74 21 171 42 140 31 173 41 164 51 -14
17 -113 54 -144 54 -14 0 -25 5 -25 10 0 6 18 10 40 10 62 0 234 28 282 46 74
27 82 27 194 -12 100 -35 118 -38 219 -38 93 0 118 3 160 22 55 26 61 32 75
84 7 25 20 43 39 52 44 23 87 79 106 138 9 29 28 71 40 93 29 50 115 132 188
179 64 41 87 69 87 108 0 16 12 41 28 60 16 18 32 45 35 59 12 47 52 94 127
145 73 50 76 53 118 146 43 98 69 199 56 221 -5 8 -2 7 9 -2 15 -12 17 -11 17
6 0 55 -33 204 -55 246 -16 32 -25 65 -25 97 0 34 -12 76 -45 151 -49 113 -55
138 -25 99 30 -38 24 -20 -18 56 -23 43 -50 76 -70 89 -24 15 -47 48 -88 130
-31 60 -68 120 -83 135 -15 14 -65 81 -111 148 -76 113 -85 124 -109 119 -22
-4 -31 3 -58 39 -38 51 -36 51 64 31 62 -13 63 -13 105 15 51 33 71 30 113
-17z m-2596 -459 c9 -11 3 -15 -31 -20 -93 -15 -182 -95 -220 -198 -11 -32
-25 -58 -30 -58 -4 0 -13 11 -20 25 -29 63 89 194 221 246 56 22 65 23 80 5z
m6 -103 c-11 -8 -49 -29 -85 -45 -36 -17 -68 -35 -72 -41 -4 -7 -10 -48 -14
-92 l-7 -80 -18 40 c-26 57 -23 83 12 136 41 58 85 89 146 98 56 9 65 5 38
-16z m2164 -889 c73 -21 117 -66 180 -183 49 -88 60 -103 103 -126 40 -22 48
-31 48 -55 0 -54 -119 -189 -205 -233 -17 -8 -82 -23 -145 -33 -97 -15 -127
-16 -194 -6 -110 16 -192 56 -242 118 -21 27 -85 100 -142 161 l-104 112 42 7
c26 4 63 23 98 48 77 57 253 176 261 176 3 1 29 7 56 15 68 19 180 18 244 -1z
m1460 -328 c35 -18 57 -51 63 -93 5 -38 -2 -42 -20 -13 -7 11 -38 37 -70 57
-31 20 -59 37 -61 39 -1 1 0 7 4 13 9 15 51 14 84 -3z m-589 -90 c0 -29 -3
-68 -6 -85 -6 -30 -9 -32 -48 -29 -30 2 -42 8 -44 21 -6 32 64 147 90 147 4 0
8 -24 8 -54z m240 -94 c16 -44 18 -57 8 -64 -54 -35 -117 71 -88 147 l12 30
23 -29 c13 -16 33 -54 45 -84z m309 59 c6 -10 12 -38 13 -62 l3 -44 -34 2
c-54 2 -68 48 -30 97 24 31 35 33 48 7z m56 -213 c-24 -43 -25 -47 -9 -83 8
-20 13 -40 10 -42 -3 -3 -28 11 -55 32 l-50 39 27 17 c15 9 42 33 61 53 19 19
36 34 38 32 2 -1 -8 -23 -22 -48z m4495 -618 c255 -15 431 -49 628 -122 110
-41 115 -54 6 -17 -216 74 -384 102 -604 102 -299 0 -547 -64 -771 -199 -77
-47 -177 -129 -168 -139 3 -2 48 14 101 35 187 77 379 118 599 127 181 7 329
-8 504 -52 368 -92 565 -259 619 -527 24 -117 19 -121 -28 -23 -48 102 -144
233 -214 296 -77 69 -185 134 -263 160 -79 26 -221 33 -304 16 -39 -9 -39 -9
86 -50 306 -103 477 -273 528 -525 38 -188 -16 -465 -145 -740 -51 -109 -134
-265 -139 -260 -2 2 3 30 11 63 38 163 57 340 58 545 1 220 -8 296 -51 435
-40 129 -88 211 -174 297 -89 91 -194 147 -321 173 -106 21 -425 21 -539 -1
-164 -30 -567 -140 -768 -209 -41 -14 -79 -25 -84 -25 -11 0 510 354 636 432
99 62 252 139 342 174 51 19 99 28 175 34 58 4 107 8 110 8 3 1 79 -3 170 -8z
m-308 -549 c296 -78 514 -263 597 -503 24 -69 44 -191 39 -238 -3 -33 -5 -29
-31 45 -44 121 -100 236 -136 278 -42 47 -58 48 -26 1 13 -19 30 -61 37 -92
14 -64 18 -321 5 -367 -8 -28 -11 -23 -42 70 -44 134 -83 219 -148 318 -160
246 -375 385 -646 418 -124 15 -234 3 -411 -46 -69 -19 -226 -62 -350 -96
-345 -94 -340 -92 161 84 283 100 382 130 499 151 14 2 104 3 200 1 137 -2
192 -8 252 -24z m-410 -262 c196 -54 303 -174 329 -366 27 -205 -69 -533 -222
-758 -31 -45 -90 -108 -96 -101 -2 2 13 30 33 62 89 138 165 359 180 517 13
151 -34 295 -125 380 -180 168 -578 219 -920 118 -72 -22 -38 -2 56 32 194 71
378 125 478 141 57 8 215 -5 287 -25z m-3680 -31 c18 -12 44 -49 62 -87 30
-65 31 -69 30 -206 -1 -171 -17 -216 -100 -295 -94 -89 -283 -158 -328 -121
-16 14 -21 -2 89 291 26 69 58 166 71 215 13 50 38 120 56 158 29 60 35 67 61
67 16 0 43 -10 59 -22z m-2331 -239 c201 -20 369 -76 441 -146 20 -20 35 -40
32 -44 -2 -4 -95 -7 -207 -6 -224 1 -303 -9 -477 -65 -212 -68 -385 -191 -450
-319 -13 -24 -27 -47 -33 -50 -18 -12 -66 12 -101 51 -49 55 -66 120 -66 261
0 132 7 179 26 179 13 0 69 -86 102 -160 l20 -45 1 131 c1 72 4 133 7 137 4 3
21 -5 38 -18 18 -14 66 -40 107 -59 76 -35 288 -107 311 -105 10 0 10 2 0 6
-7 3 -31 33 -53 68 -22 35 -58 80 -80 100 l-40 36 44 19 c80 36 216 46 378 29z
m1694 -33 c16 -11 17 -18 8 -38 -51 -112 -580 -720 -760 -874 -79 -66 -104
-77 -299 -126 -72 -18 -117 -23 -234 -23 -144 0 -146 0 -212 33 -64 31 -109
76 -91 91 4 5 58 25 118 46 283 98 460 183 659 317 157 105 156 104 230 195
152 189 421 379 552 392 5 1 19 -5 29 -13z m357 -1 c3 -3 -7 -54 -23 -114 -52
-205 -149 -360 -303 -483 -50 -40 -127 -107 -171 -148 -150 -139 -475 -296
-566 -273 -15 4 -17 9 -8 25 20 38 84 101 214 213 128 111 131 113 188 223
123 235 262 389 441 487 95 53 210 88 228 70z m5713 -130 c467 -229 893 -593
1029 -879 38 -79 66 -176 66 -227 0 -28 -8 -16 -39 63 -100 253 -263 448 -528
632 -48 34 -173 117 -278 185 -173 112 -415 279 -440 304 -22 21 46 -7 190
-78z m-9121 17 c11 -38 -12 -178 -49 -307 -26 -89 -102 -238 -121 -236 -16 2
-16 133 2 211 31 143 92 314 127 358 15 19 31 9 41 -26z m6237 -83 c250 -69
396 -240 445 -521 13 -74 15 -135 11 -295 -3 -112 -4 -203 -2 -203 5 0 54 86
85 149 16 31 36 86 45 121 22 84 22 249 0 354 -9 43 -14 80 -12 82 2 2 28 -14
58 -35 118 -85 195 -235 236 -461 26 -144 23 -473 -6 -695 -38 -284 -133 -726
-201 -932 -10 -32 -17 -59 -15 -61 14 -14 171 303 234 475 97 265 143 504 144
745 0 87 2 156 4 154 10 -10 63 -300 74 -402 18 -184 7 -503 -25 -689 -28
-159 -81 -373 -142 -570 -88 -285 -133 -437 -139 -467 -9 -46 114 196 195 382
87 199 203 515 223 605 36 160 67 518 67 776 0 137 2 160 14 150 26 -22 146
-275 181 -383 60 -186 70 -258 70 -498 0 -184 -4 -232 -23 -328 -52 -256 -127
-468 -305 -857 -112 -245 -180 -405 -175 -410 2 -2 31 42 66 98 35 56 126 188
204 292 242 327 346 495 393 635 11 30 22 59 25 63 9 11 48 -124 60 -208 36
-254 -38 -614 -185 -905 -18 -36 -70 -128 -115 -205 -87 -148 -105 -185 -90
-185 12 0 73 63 125 130 135 175 318 501 396 704 l12 31 7 -30 c12 -46 11
-370 0 -486 -45 -450 -173 -828 -341 -1001 -32 -32 -56 -58 -55 -58 0 0 26 9
56 21 279 105 491 317 589 585 l29 78 4 -43 c6 -66 -9 -199 -32 -290 -24 -95
-77 -234 -185 -486 -166 -387 -215 -598 -183 -795 7 -47 13 -120 12 -162 0
-68 -5 -86 -37 -150 -107 -216 -359 -405 -547 -411 -66 -1 -101 16 -126 64
-15 30 -15 33 25 116 23 47 40 88 38 90 -18 18 -127 -113 -148 -177 -16 -50
-37 -70 -73 -70 -65 1 -176 76 -176 120 0 11 25 38 60 65 33 25 65 55 70 66
10 17 7 19 -20 19 -38 0 -123 -42 -145 -72 -17 -22 -17 -22 -11 25 12 95 41
143 130 209 103 78 134 106 152 141 42 80 144 759 144 958 l0 68 -132 90
c-165 111 -281 209 -319 270 -31 48 -61 135 -74 209 -4 23 -11 40 -16 36 -24
-14 0 -211 50 -401 18 -68 18 -72 2 -63 -63 33 -207 287 -287 505 -18 50 -33
86 -33 80 -2 -22 40 -295 55 -363 9 -40 14 -75 11 -78 -19 -19 -125 153 -209
340 -62 137 -69 147 -202 259 -31 27 -63 62 -72 78 -8 17 -24 90 -35 162 -40
270 -106 541 -143 592 -14 19 -15 19 -26 -10 -33 -86 79 -606 171 -793 26 -53
62 -106 101 -147 43 -46 55 -65 42 -65 -27 0 -54 -30 -54 -59 0 -14 9 -56 19
-94 11 -37 16 -67 11 -67 -29 0 -163 203 -290 440 l-61 115 5 -95 c14 -248 18
-383 11 -437 -6 -52 -8 -56 -21 -38 -15 20 -93 217 -140 352 -16 45 -31 79
-35 75 -3 -4 -16 -36 -29 -72 -32 -91 -74 -173 -111 -215 -18 -20 -34 -34 -36
-31 -2 2 19 42 46 89 55 92 70 145 92 322 16 132 17 358 1 412 -16 53 -33 66
-21 15 14 -59 10 -278 -6 -387 -33 -215 -89 -365 -172 -457 -42 -46 -53 -68
-71 -135 -12 -43 -22 -102 -22 -129 l-1 -49 -22 28 c-78 94 -135 226 -144 331
-3 42 -12 84 -19 94 -13 16 -15 15 -35 -8 -30 -35 -82 -143 -107 -220 -25 -78
-45 -187 -38 -206 3 -7 1 -16 -4 -19 -25 -15 -32 54 -26 245 14 464 17 718 9
755 -8 33 -11 12 -16 -115 -13 -265 -38 -724 -41 -740 -1 -8 -56 92 -121 223
-64 131 -119 237 -120 235 -3 -3 27 -292 40 -388 10 -71 -7 -41 -85 150 -72
175 -108 250 -120 250 -13 0 -20 -103 -21 -300 -1 -223 -5 -215 -44 97 -16
124 -33 219 -38 216 -14 -8 -59 -114 -122 -285 -31 -84 -59 -155 -61 -158 -3
-2 -2 56 1 130 5 111 3 145 -10 190 -9 30 -19 78 -21 105 -2 28 -9 115 -15
195 -14 181 -28 214 -29 65 0 -121 -18 -247 -56 -400 -29 -118 -136 -444 -140
-430 -2 6 9 80 25 165 26 145 27 158 14 205 -18 61 -53 127 -71 133 -11 3 -12
0 -2 -18 15 -28 15 -113 -1 -175 -17 -69 -63 -110 -152 -136 -154 -46 -162
-53 -259 -206 -125 -199 -121 -196 -92 -63 59 273 72 335 68 339 -2 2 -13 -7
-24 -21 -10 -14 -36 -45 -56 -69 -33 -39 -72 -115 -232 -452 -25 -55 -48 -94
-50 -89 -3 9 25 181 44 275 3 16 1 27 -5 27 -6 0 -11 -5 -11 -12 0 -33 -83
-179 -120 -211 -22 -18 -40 -41 -40 -49 0 -18 -179 -382 -185 -376 -3 2 10 42
29 89 38 99 50 139 38 139 -15 0 -73 -48 -99 -82 -28 -37 -96 -178 -150 -308
-47 -116 -105 -325 -143 -514 -32 -167 -49 -219 -88 -278 -31 -47 -71 -74
-215 -144 l-118 -57 -60 11 c-71 13 -89 25 -89 60 0 34 43 105 82 136 26 20
29 26 14 26 -26 0 -93 -72 -138 -148 -46 -77 -83 -96 -172 -90 -73 5 -89 22
-74 76 12 44 41 84 111 153 l52 52 -40 -21 c-42 -21 -106 -83 -144 -139 -27
-39 -65 -44 -105 -12 -47 37 -32 126 35 209 18 22 30 43 27 46 -11 10 -66 -25
-97 -63 -23 -28 -34 -34 -42 -26 -6 6 -9 22 -6 35 16 63 153 220 251 287 59
41 92 109 106 215 13 97 12 713 0 872 -21 255 -73 428 -150 498 -37 33 -37 34
-64 197 -26 157 -45 230 -33 124 14 -116 18 -303 8 -365 -6 -35 -25 -114 -43
-174 l-31 -109 -28 112 c-47 189 -116 304 -237 389 l-60 42 -51 -55 c-29 -30
-54 -55 -56 -55 -2 0 -24 51 -50 113 -93 219 -140 299 -241 408 -57 62 -94
139 -160 331 -35 104 -63 172 -79 188 -14 15 -31 51 -39 85 l-14 60 -1 -83
c-1 -45 6 -148 14 -229 15 -139 15 -182 0 -131 -4 13 -44 140 -90 283 -46 143
-93 293 -105 333 -24 83 -31 83 -75 8 -35 -60 -48 -127 -34 -180 12 -47 62
-116 75 -104 4 5 -1 35 -11 67 -17 56 -15 106 4 85 4 -5 25 -58 46 -119 21
-60 54 -151 74 -201 l37 -91 -66 48 c-36 27 -97 81 -136 121 l-71 73 8 107 c5
61 5 116 0 130 l-9 23 -10 -26 c-6 -14 -18 -65 -28 -114 -16 -81 -18 -85 -30
-64 -17 31 -77 213 -100 303 l-17 70 -13 -45 c-7 -24 -24 -97 -40 -161 -15
-65 -31 -118 -35 -118 -42 0 -44 405 -3 600 5 25 5 25 -11 5 -9 -11 -44 -68
-77 -128 -34 -59 -62 -106 -64 -105 -14 14 -46 317 -51 475 -5 178 -7 191 -23
183 -27 -14 -29 -4 -15 58 18 74 95 315 104 325 4 4 41 -22 81 -57 41 -36 76
-64 78 -62 6 6 -25 62 -73 132 -27 39 -46 80 -50 107 -9 62 12 163 47 227 30
54 108 159 118 160 3 0 7 -17 8 -37 2 -21 9 -72 17 -113 7 -41 19 -109 25
-150 24 -146 83 -272 162 -346 27 -25 51 -44 53 -42 2 2 -5 29 -16 60 -66 196
-94 374 -86 557 10 252 79 439 226 610 96 113 119 157 131 259 6 42 14 90 18
106 7 25 9 26 21 13 7 -9 17 -46 22 -82 10 -75 18 -93 64 -150 40 -50 46 -82
34 -174 -7 -59 -18 -89 -53 -150 -90 -155 -122 -293 -132 -565 -7 -198 -1
-235 70 -393 25 -54 75 -197 112 -318 64 -210 106 -325 119 -325 3 0 3 79 -1
175 -8 190 -4 201 40 142 44 -57 94 -179 141 -343 26 -88 61 -202 78 -254 l32
-95 5 140 c3 77 8 135 12 129 4 -6 15 -33 24 -60 9 -27 32 -76 52 -109 45 -76
194 -287 199 -282 6 7 -159 337 -168 337 -34 0 -68 165 -69 329 l0 114 -22
-19 c-31 -28 -78 -105 -78 -128 -1 -65 -124 167 -185 348 -23 70 -39 141 -44
198 -5 49 -11 92 -15 95 -13 13 -41 -14 -56 -53 -10 -28 -14 -82 -15 -188 0
-141 -1 -146 -13 -100 -7 27 -35 119 -62 206 -73 234 -83 300 -77 508 7 230
39 362 117 475 44 64 60 117 60 197 0 63 2 69 17 63 40 -15 154 -34 243 -40
l95 -7 168 -91 c105 -57 176 -101 188 -119 32 -45 97 -58 288 -58 91 0 227 7
301 15 74 9 203 20 285 25 299 18 517 107 670 271 69 74 141 135 200 169 56
32 241 103 377 145 70 22 106 41 189 101 88 64 108 74 144 74 63 0 175 -80
175 -126 0 -17 -33 -18 -62 -3 -14 8 -18 8 -14 0 13 -20 133 -101 190 -127 58
-26 82 -27 175 -8 26 5 33 4 29 -7 -5 -15 -36 -24 -121 -36 l-59 -8 46 -32
c54 -39 90 -102 81 -144 -4 -16 -11 -32 -17 -35 -7 -4 -8 -2 -4 4 12 20 -21
80 -55 97 -41 22 -174 16 -237 -11 l-43 -17 54 -17 c108 -34 257 -141 337
-241 45 -56 51 -75 19 -59 -11 7 -23 9 -26 7 -2 -3 11 -44 30 -92 23 -58 29
-81 18 -71 -42 39 -123 56 -162 36 -26 -14 -17 -30 81 -140 l79 -88 -75 24
-76 23 35 -42 c61 -75 77 -108 77 -164 0 -58 -38 -175 -77 -237 -30 -47 -32
-44 -62 73 -21 87 -52 134 -92 144 -24 6 -25 -20 -4 -153 19 -122 19 -164 0
-180 -31 -26 -8 -195 40 -290 l27 -52 -59 44 c-84 65 -83 64 -67 10 37 -122
56 -341 33 -383 -17 -32 -27 -13 -34 67 -4 41 -9 73 -12 71 -2 -3 -22 -74 -44
-158 -22 -85 -41 -158 -42 -164 -2 -5 -25 32 -52 83 -69 130 -77 134 -70 36
11 -136 -41 -287 -152 -441 -29 -40 -50 -73 -47 -73 3 0 50 23 103 50 114 58
215 142 320 264 41 47 78 86 81 86 9 0 35 -30 48 -56 7 -12 13 -72 16 -134 2
-62 8 -116 13 -121 9 -9 112 158 182 295 57 112 80 187 87 289 l7 88 28 -49
c34 -60 99 -119 176 -159 104 -55 111 -50 35 22 -39 36 -94 103 -123 147 -52
81 -154 287 -146 295 7 6 281 -152 417 -242 202 -132 320 -234 343 -298 3 -9
7 -9 17 0 40 37 -122 263 -369 516 -41 42 -72 77 -68 77 12 0 120 -74 262
-180 245 -184 443 -381 525 -524 17 -31 33 -56 34 -56 5 0 -11 80 -29 149 -33
129 -111 287 -201 406 -97 130 -292 306 -416 374 -26 14 -48 30 -48 35 0 9
109 1 203 -15 305 -52 583 -277 733 -593 21 -44 40 -74 42 -68 8 26 -32 145
-88 257 -90 183 -193 301 -330 379 -53 30 -50 31 79 11 356 -53 960 -213 1226
-324 l50 -21 -70 65 c-289 270 -539 479 -715 597 -123 83 -137 95 -90 75 36
-15 336 -153 493 -225 l89 -41 -21 32 c-83 133 -210 297 -301 388 l-106 107
55 -24 c74 -33 135 -71 276 -174 157 -114 156 -113 102 -43 -137 179 -399 355
-764 514 -67 29 -121 54 -120 55 1 2 123 -38 269 -88 147 -49 273 -88 279 -86
7 2 -41 28 -107 57 -197 88 -304 139 -304 146 0 3 53 3 119 -1 88 -5 120 -4
126 5 9 15 -28 57 -68 77 -31 17 -101 119 -92 134 8 13 81 12 183 -4 45 -6 82
-11 82 -9 0 1 -107 56 -237 122 -234 118 -340 178 -331 187 3 2 49 -10 104
-27 90 -28 354 -83 361 -75 2 2 -80 38 -182 81 -102 43 -188 81 -190 86 -7 11
93 65 155 83 106 31 154 18 314 -86 100 -65 242 -136 252 -125 2 2 -51 51
-118 109 -129 110 -208 190 -208 209 0 15 86 4 181 -22z m-4215 -10 c85 -12
171 -40 206 -69 22 -17 22 -19 5 -38 -21 -23 -117 -76 -176 -97 -35 -12 -44
-12 -68 0 -65 34 -286 11 -451 -46 -253 -89 -378 -222 -340 -361 8 -26 7 -25
-56 17 -92 61 -153 81 -273 88 -121 7 -173 25 -173 60 0 45 50 126 108 173
233 190 840 326 1218 273z m444 -52 c0 -27 -64 -109 -127 -163 -79 -66 -205
-151 -330 -223 -184 -104 -525 -258 -656 -296 -58 -17 -59 -17 -83 6 -58 54
-55 145 7 238 114 171 373 265 597 217 69 -14 76 -14 122 4 78 31 206 97 294
153 109 68 176 93 176 64z m6377 -97 c117 -71 238 -269 354 -577 142 -378 167
-499 176 -839 7 -253 -1 -326 -82 -729 -69 -343 -90 -497 -101 -750 -9 -177
-9 -176 -40 80 -19 154 -23 537 -14 1295 4 296 2 431 -8 500 -48 362 -143 604
-329 841 -48 61 -47 49 -18 177 7 27 20 28 62 2z m-923 -1022 c208 -439 271
-842 187 -1178 l-19 -75 5 215 c8 301 -14 503 -79 725 -18 62 -74 216 -137
373 -36 90 -12 57 43 -60z m-7349 -2185 c79 -283 140 -443 168 -443 27 0 89
-82 138 -184 l50 -102 -35 -52 c-20 -31 -38 -71 -42 -98 -14 -96 16 -296 78
-524 28 -101 38 -124 89 -192 76 -103 94 -150 85 -231 -12 -116 -60 -260 -101
-301 -42 -41 -104 -1 -159 102 -31 59 -34 62 -40 38 -15 -59 32 -155 84 -171
28 -9 25 -18 -15 -54 -43 -38 -52 -38 -118 -5 -85 43 -122 89 -152 187 -14 48
-29 48 -33 2 -5 -58 26 -133 74 -181 43 -44 43 -44 18 -50 -36 -9 -83 14 -109
55 -39 60 -120 276 -165 441 -63 234 -130 403 -200 505 -31 44 -106 245 -142
376 -19 68 -23 109 -23 219 0 130 1 137 31 200 17 36 81 131 141 211 61 81
115 155 121 165 10 18 12 18 39 1 15 -10 42 -25 60 -34 17 -9 36 -28 43 -42
19 -43 101 -171 109 -171 4 0 4 28 0 63 -8 66 -19 327 -14 327 2 0 11 -26 20
-57z m6171 -1300 c72 -130 114 -178 168 -189 48 -8 61 6 71 77 9 61 20 69 41
27 9 -18 67 -85 129 -148 65 -66 116 -127 120 -143 9 -35 -19 -205 -50 -299
-50 -152 -59 -165 -175 -242 -212 -140 -521 -266 -653 -266 -39 0 -49 4 -63
25 -16 24 -15 44 3 125 l6 25 -26 -24 c-30 -28 -48 -73 -44 -116 2 -25 -2 -31
-21 -33 -28 -4 -52 14 -52 38 0 10 -7 24 -16 31 -13 10 -15 29 -12 88 5 124
-33 92 -52 -43 l-7 -51 -21 45 c-58 122 3 233 178 324 36 18 93 44 126 56 62
22 62 22 98 98 76 164 126 332 126 428 0 38 -9 69 -38 130 -36 73 -58 134 -49
134 3 0 25 -35 49 -77 48 -82 125 -176 137 -168 4 2 -2 57 -15 122 -25 129
-26 133 -20 133 2 0 30 -48 62 -107z"/>
<path d="M3835 10086 c-78 -24 -168 -92 -253 -189 -18 -21 -44 -42 -58 -47
-36 -14 -31 -47 11 -71 19 -12 57 -49 85 -84 92 -116 153 -152 298 -177 123
-21 288 30 394 122 37 32 48 50 56 87 6 26 8 51 5 56 -3 5 -20 7 -38 6 -43 -4
-60 12 -80 71 -19 57 -80 153 -122 193 -23 21 -46 30 -94 37 -86 13 -156 11
-204 -4z m145 -66 c66 -34 53 -69 -35 -91 -74 -18 -81 -27 -49 -60 21 -22 25
-33 19 -57 -8 -38 -48 -82 -73 -82 -24 0 -35 13 -67 76 -29 57 -30 64 -10 64
20 0 19 19 -1 41 -15 17 -13 21 29 63 69 70 117 82 187 46z m190 -121 c0 -6
16 -44 34 -85 28 -60 41 -77 67 -88 l32 -14 -60 -44 c-79 -58 -213 -103 -283
-95 -63 8 -155 41 -202 73 -34 24 -148 152 -148 167 0 4 15 27 32 52 l33 47
12 -70 c14 -85 29 -110 96 -156 84 -58 188 -65 283 -20 67 32 101 106 91 202
-3 31 -2 50 4 47 5 -4 9 -11 9 -16z"/>
<path d="M5420 6518 c0 -3 15 -38 34 -79 137 -297 173 -680 85 -913 -31 -85
-42 -86 -67 -7 -21 66 -54 121 -72 121 -15 0 -42 -85 -77 -249 -19 -91 -46
-193 -59 -226 -30 -74 -193 -293 -274 -369 -32 -29 -87 -72 -122 -94 -34 -22
-71 -49 -82 -59 -16 -16 -95 -171 -156 -308 -12 -27 -24 -44 -27 -37 -3 7 3
94 12 193 9 100 14 183 12 186 -6 6 -56 -78 -162 -271 -93 -172 -145 -256
-157 -256 -13 0 -9 60 12 205 18 121 20 159 6 144 -9 -9 -116 -352 -122 -391
l-7 -41 29 7 c56 13 152 67 192 107 23 22 48 59 56 82 9 23 26 69 38 102 l23
60 5 -122 c6 -136 14 -156 53 -130 61 40 161 202 192 310 20 72 65 124 190
217 107 80 138 112 242 250 87 116 129 204 164 345 23 97 47 143 34 65 -12
-66 -12 -123 1 -127 20 -7 64 38 103 105 21 37 49 76 61 87 109 98 118 387 24
732 -38 141 -124 327 -161 351 -13 8 -23 12 -23 10z"/>
<path d="M2024 5544 c15 -186 49 -296 167 -539 79 -163 86 -174 178 -271 53
-55 146 -157 208 -225 139 -153 448 -460 440 -436 -4 9 -50 81 -103 159 -54
77 -108 166 -120 197 -23 56 -31 102 -16 100 4 0 50 -61 102 -136 117 -168
219 -283 343 -391 103 -90 249 -203 255 -198 2 2 -22 54 -53 116 -31 62 -55
114 -53 116 2 2 41 -49 85 -114 45 -64 120 -165 167 -224 93 -115 106 -140
106 -196 0 -48 -33 -184 -59 -244 -11 -27 -18 -48 -15 -48 2 0 77 60 165 133
88 72 164 133 169 135 5 2 19 -30 31 -70 l23 -73 7 42 c15 82 47 134 148 237
81 84 161 187 206 266 17 30 -121 -107 -176 -175 -32 -38 -78 -87 -104 -109
-26 -21 -55 -52 -65 -68 l-18 -30 -12 36 c-6 20 -15 36 -18 36 -4 0 -71 -64
-150 -142 l-143 -143 38 80 c34 73 38 87 38 165 0 63 -5 93 -18 118 -23 43
-352 417 -415 472 -51 46 -88 67 -99 57 -3 -4 17 -54 45 -112 29 -58 46 -103
39 -98 -6 4 -50 34 -97 67 -194 137 -247 198 -341 394 -75 155 -119 221 -203
300 -87 81 -103 84 -64 9 12 -23 34 -87 48 -142 15 -55 35 -118 44 -140 10
-22 16 -38 14 -35 -315 358 -374 429 -444 533 -109 162 -119 185 -189 427 -75
259 -103 309 -91 164z"/>
</g>
</svg>
